<svg xmlns="http://www.w3.org/2000/svg" viewBox="0 0 302 52"><defs><style>.cls-1{fill:#c20005;}.cls-2{fill:#fff;}.cls-3{fill:none;stroke:#fff;stroke-miterlimit:10;}</style></defs><g id="レイヤー_2" data-name="レイヤー 2"><g id="レイヤー_1-2" data-name="レイヤー 1"><rect class="cls-1" width="302" height="52"/><path class="cls-2" d="M31,13.72a1,1,0,0,1,.65.25,1.46,1.46,0,0,1,.41.49l5.27,12.23,5.29-12.23A1.27,1.27,0,0,1,43,14a1,1,0,0,1,.65-.25h4.69a.64.64,0,0,1,.55.25.8.8,0,0,1,.19.49V39.38a.8.8,0,0,1-.19.48.64.64,0,0,1-.53.26H44.12a.62.62,0,0,1-.54-.26.85.85,0,0,1-.18-.48V26.21L38.81,36.78a1.49,1.49,0,0,1-.4.48.93.93,0,0,1-.64.26h-.84a1,1,0,0,1-.63-.26,1.54,1.54,0,0,1-.41-.48L31.3,26.21V39.38a.85.85,0,0,1-.18.48.62.62,0,0,1-.54.26H26.31a.64.64,0,0,1-.53-.26.8.8,0,0,1-.19-.48V14.46a.82.82,0,0,1,.2-.49.66.66,0,0,1,.54-.25Z"/><path class="cls-2" d="M74.35,14.46V39.38a.8.8,0,0,1-.19.48.64.64,0,0,1-.53.26H54.26a.65.65,0,0,1-.54-.26.85.85,0,0,1-.18-.48V14.46a.85.85,0,0,1,.18-.49.64.64,0,0,1,.54-.25H73.63a.63.63,0,0,1,.53.25A.8.8,0,0,1,74.35,14.46ZM68.64,34.41v-15H59.25v15Z"/><path class="cls-2" d="M78.78,14.46a1.76,1.76,0,0,1,.07-.22,1.53,1.53,0,0,1,.24-.32.52.52,0,0,1,.41-.2H97.1a.63.63,0,0,1,.53.25.87.87,0,0,1,.19.49v15a.89.89,0,0,1-.19.49.66.66,0,0,1-.53.25H94.2l4,9.21a.54.54,0,0,1,0,.46.39.39,0,0,1-.43.28H93.41a1,1,0,0,1-.64-.26,1.49,1.49,0,0,1-.4-.48l-4-9.21H84.49v9.21a.8.8,0,0,1-.19.48.63.63,0,0,1-.53.26H79.5a.61.61,0,0,1-.53-.26.8.8,0,0,1-.19-.48Zm13.33,5H84.49v5h7.62Z"/><path class="cls-2" d="M108,34.41h12.6a.87.87,0,0,1,.49.18.61.61,0,0,1,.25.54V39.4a.63.63,0,0,1-.25.53.89.89,0,0,1-.49.19H103a.62.62,0,0,1-.54-.26.85.85,0,0,1-.18-.48V14.46a.85.85,0,0,1,.18-.49.61.61,0,0,1,.54-.25h17.59a.87.87,0,0,1,.49.18.61.61,0,0,1,.25.54v4.27a.63.63,0,0,1-.25.53.82.82,0,0,1-.49.19H108V24h9.68a.84.84,0,0,1,.47.18.61.61,0,0,1,.25.54V29a.6.6,0,0,1-.25.52.82.82,0,0,1-.47.2H108Z"/><polyline class="cls-3" points="205.84 30 291.59 30 273.22 22"/></g></g></svg>