<svg xmlns="http://www.w3.org/2000/svg" viewBox="0 0 103.55 103"><defs><style>.cls-1{fill:#c20005;}.cls-2{fill:#fff;}</style></defs><g id="レイヤー_2" data-name="レイヤー 2"><g id="レイヤー_1-2" data-name="レイヤー 1"><polygon class="cls-1" points="0.34 0 0 103 103.55 0 0.34 0"/><path class="cls-2" d="M12.4,53.81a.75.75,0,0,1,.53-.24,1.28,1.28,0,0,1,.54,0l12.47,4.64-8.68-8.51a.68.68,0,0,1-.17-.41.55.55,0,0,1,.16-.48l2.52-2.57a.51.51,0,0,1,.47-.17.65.65,0,0,1,.4.17L35.72,61.05a.71.71,0,0,1,.18.4.51.51,0,0,1-.16.47l-.39.4v0L32.74,65a.84.84,0,0,1-.54.24,1.23,1.23,0,0,1-.53,0L19,60.5l8.81,8.63a.66.66,0,0,1,.19.4.51.51,0,0,1-.17.47l-2.53,2.59a.54.54,0,0,1-.46.17.74.74,0,0,1-.41-.17L9.34,57.82a.68.68,0,0,1-.17-.41.58.58,0,0,1,.16-.48Z"/><path class="cls-2" d="M38.71,52l4.55-4.65,2.92-3a.71.71,0,0,1,.4-.18.54.54,0,0,1,.47.16l2.59,2.54a.5.5,0,0,1,.16.46.68.68,0,0,1-.17.41l-5.82,5.94L41.3,56.24l-2.09,2.14a.52.52,0,0,1-.47.17.7.7,0,0,1-.41-.17L23.26,43.61a.72.72,0,0,1-.19-.4.52.52,0,0,1,.17-.47l.93-1L27.84,38l2.91-3,2.91-3a.69.69,0,0,1,.4-.19.56.56,0,0,1,.48.16l2.58,2.54a.54.54,0,0,1,.17.46.68.68,0,0,1-.17.41L29.65,43.1l2.79,2.73L35.26,43l2.92-3a.71.71,0,0,1,.38-.17A.55.55,0,0,1,39,40l2.58,2.54a.51.51,0,0,1,.17.46.7.7,0,0,1-.16.4l-5.74,5.86Z"/><path class="cls-2" d="M58.73,37.56a.88.88,0,0,1,.11.47.7.7,0,0,1-.21.52L56,41.22a.71.71,0,0,1-.52.22,1,1,0,0,1-.47-.1L36.1,30.54a.58.58,0,0,1-.26-.33.39.39,0,0,1,.12-.42l2.63-2.68a.66.66,0,0,1,.51-.21,1.08,1.08,0,0,1,.48.09l11,6.27-3-5.11-5.84-3.32a.57.57,0,0,1-.25-.33.39.39,0,0,1,.12-.42l2.62-2.68,2.63-2.68a.39.39,0,0,1,.42-.14.64.64,0,0,1,.34.26L51,24.61l5.14,2.94L49.68,16.68a1.07,1.07,0,0,1-.1-.48.66.66,0,0,1,.2-.51L52.4,13a.39.39,0,0,1,.42-.14.64.64,0,0,1,.34.26L64.32,31.85a.88.88,0,0,1,.11.47.73.73,0,0,1-.2.52l-2.62,2.67a.75.75,0,0,1-.51.22.93.93,0,0,1-.48-.1L56,33Z"/><path class="cls-2" d="M58.19,4.86l11.3,11.08a.72.72,0,0,1,.19.39.53.53,0,0,1-.17.48L67,19.39a.52.52,0,0,1-.47.18.71.71,0,0,1-.4-.18L54.8,8.32a.65.65,0,0,1-.17-.4.53.53,0,0,1,.17-.48l2.52-2.58a.5.5,0,0,1,.46-.16A.67.67,0,0,1,58.19,4.86Zm13,13.54a.56.56,0,0,1,.47-.17.71.71,0,0,1,.4.17l2.8,2.74a.74.74,0,0,1,.18.41.56.56,0,0,1-.16.47L72.3,24.6a.56.56,0,0,1-.47.17.7.7,0,0,1-.41-.17l-2.79-2.74a.74.74,0,0,1-.18-.4.52.52,0,0,1,.16-.47Z"/></g></g></svg>