<svg xmlns="http://www.w3.org/2000/svg" viewBox="0 0 862.5 214"><defs><style>.cls-1,.cls-3{fill:#fff;}.cls-2,.cls-4{fill:#c20005;}.cls-2,.cls-5{stroke:#c20005;}.cls-2,.cls-3{stroke-width:3px;}.cls-3,.cls-4{stroke:#fff;}.cls-4{stroke-miterlimit:10;}.cls-5{fill:none;}</style></defs><g id="レイヤー_2" data-name="レイヤー 2"><g id="レイヤー_1-2" data-name="レイヤー 1"><rect class="cls-1" y="1.5" width="861" height="211"/><rect class="cls-2" x="664" y="1.5" width="197" height="211"/><polygon class="cls-3" points="766.26 91.2 793.28 106.39 766.62 122.19 739.95 138 739.59 107 739.24 76 766.26 91.2"/><path class="cls-4" d="M213.18,75.35a3.35,3.35,0,0,1,.2-.58,3.49,3.49,0,0,1,.65-.91,1.53,1.53,0,0,1,1.14-.56h48.48a1.74,1.74,0,0,1,1.46.71,2.29,2.29,0,0,1,.53,1.34v46.49a2.29,2.29,0,0,1-.53,1.34,1.74,1.74,0,0,1-1.46.71H228.93v20.7a2.25,2.25,0,0,1-.54,1.34,1.72,1.72,0,0,1-1.45.71H215.17a1.71,1.71,0,0,1-1.48-.71,2.32,2.32,0,0,1-.51-1.34ZM249.9,89.17h-21V108h21Z"/><path class="cls-4" d="M333.09,75.35v69.24a2.29,2.29,0,0,1-.53,1.34,1.74,1.74,0,0,1-1.46.71H277.73a1.71,1.71,0,0,1-1.48-.71,2.32,2.32,0,0,1-.51-1.34V75.35a2.32,2.32,0,0,1,.51-1.34,1.71,1.71,0,0,1,1.48-.71H331.1a1.74,1.74,0,0,1,1.46.71A2.29,2.29,0,0,1,333.09,75.35Zm-15.74,55.42V89.17H291.48v41.6Z"/><path class="cls-4" d="M379.92,89.27h-21v12.89h34.78a1.72,1.72,0,0,1,1.45.71,2.25,2.25,0,0,1,.54,1.34v40.38a2.25,2.25,0,0,1-.54,1.34,1.72,1.72,0,0,1-1.45.71H345.38a2.22,2.22,0,0,1-1.33-.54,1.72,1.72,0,0,1-.7-1.46V127.16a2.38,2.38,0,0,1,.5-1.34,1.7,1.7,0,0,1,1.48-.71H357.1a1.69,1.69,0,0,1,1.48.71,2.32,2.32,0,0,1,.51,1.34v3.61h20.83V118H345.14a1.71,1.71,0,0,1-1.48-.71,2.32,2.32,0,0,1-.51-1.34V75.45a2.32,2.32,0,0,1,.51-1.34,1.71,1.71,0,0,1,1.48-.71h48.53a1.72,1.72,0,0,1,1.45.71,2.25,2.25,0,0,1,.54,1.34V93.08a2.25,2.25,0,0,1-.54,1.34,1.72,1.72,0,0,1-1.45.71H381.9a1.73,1.73,0,0,1-1.48-.71,2.38,2.38,0,0,1-.5-1.34Z"/><path class="cls-4" d="M425.52,89.17H407.75a2.25,2.25,0,0,1-1.34-.54,1.72,1.72,0,0,1-.7-1.46V75.3a1.74,1.74,0,0,1,.7-1.49,2.32,2.32,0,0,1,1.34-.51H459a2.3,2.3,0,0,1,1.33.51,1.74,1.74,0,0,1,.7,1.49V87.17a1.72,1.72,0,0,1-.7,1.46,2.22,2.22,0,0,1-1.33.54H441.26v55.42a2.29,2.29,0,0,1-.53,1.34,1.72,1.72,0,0,1-1.45.71H427.51a1.71,1.71,0,0,1-1.48-.71,2.32,2.32,0,0,1-.51-1.34Z"/><path class="cls-5" d="M213.18,75.35a3.35,3.35,0,0,1,.2-.58,3.49,3.49,0,0,1,.65-.91,1.53,1.53,0,0,1,1.14-.56h48.48a1.74,1.74,0,0,1,1.46.71,2.29,2.29,0,0,1,.53,1.34v46.49a2.29,2.29,0,0,1-.53,1.34,1.74,1.74,0,0,1-1.46.71H228.93v20.7a2.25,2.25,0,0,1-.54,1.34,1.72,1.72,0,0,1-1.45.71H215.17a1.71,1.71,0,0,1-1.48-.71,2.32,2.32,0,0,1-.51-1.34ZM249.9,89.17h-21V108h21Z"/><path class="cls-5" d="M333.09,75.35v69.24a2.29,2.29,0,0,1-.53,1.34,1.74,1.74,0,0,1-1.46.71H277.73a1.71,1.71,0,0,1-1.48-.71,2.32,2.32,0,0,1-.51-1.34V75.35a2.32,2.32,0,0,1,.51-1.34,1.71,1.71,0,0,1,1.48-.71H331.1a1.74,1.74,0,0,1,1.46.71A2.29,2.29,0,0,1,333.09,75.35Zm-15.74,55.42V89.17H291.48v41.6Z"/><path class="cls-5" d="M379.92,89.27h-21v12.89h34.78a1.72,1.72,0,0,1,1.45.71,2.25,2.25,0,0,1,.54,1.34v40.38a2.25,2.25,0,0,1-.54,1.34,1.72,1.72,0,0,1-1.45.71H345.38a2.22,2.22,0,0,1-1.33-.54,1.72,1.72,0,0,1-.7-1.46V127.16a2.38,2.38,0,0,1,.5-1.34,1.7,1.7,0,0,1,1.48-.71H357.1a1.69,1.69,0,0,1,1.48.71,2.32,2.32,0,0,1,.51,1.34v3.61h20.83V118H345.14a1.71,1.71,0,0,1-1.48-.71,2.32,2.32,0,0,1-.51-1.34V75.45a2.32,2.32,0,0,1,.51-1.34,1.71,1.71,0,0,1,1.48-.71h48.53a1.72,1.72,0,0,1,1.45.71,2.25,2.25,0,0,1,.54,1.34V93.08a2.25,2.25,0,0,1-.54,1.34,1.72,1.72,0,0,1-1.45.71H381.9a1.73,1.73,0,0,1-1.48-.71,2.38,2.38,0,0,1-.5-1.34Z"/><path class="cls-5" d="M425.52,89.17H407.75a2.25,2.25,0,0,1-1.34-.54,1.72,1.72,0,0,1-.7-1.46V75.3a1.74,1.74,0,0,1,.7-1.49,2.32,2.32,0,0,1,1.34-.51H459a2.3,2.3,0,0,1,1.33.51,1.74,1.74,0,0,1,.7,1.49V87.17a1.72,1.72,0,0,1-.7,1.46,2.22,2.22,0,0,1-1.33.54H441.26v55.42a2.29,2.29,0,0,1-.53,1.34,1.72,1.72,0,0,1-1.45.71H427.51a1.71,1.71,0,0,1-1.48-.71,2.32,2.32,0,0,1-.51-1.34Z"/></g></g></svg>