<svg xmlns="http://www.w3.org/2000/svg" viewBox="0 0 737.96 92.95"><defs><style>.cls-1{fill:#c20005;stroke:#fff;stroke-miterlimit:10;}</style></defs><g id="レイヤー_2" data-name="レイヤー 2"><g id="レイヤー_1-2" data-name="レイヤー 1"><path class="cls-1" d="M48.51,45.09A9.88,9.88,0,0,0,49.12,43a17.66,17.66,0,0,0,.31-2.11l.06-.82V33.43H36.31V52.82a3.11,3.11,0,0,1-.71,1.79,2.25,2.25,0,0,1-1.93,1H19.2a2.25,2.25,0,0,1-1.93-1,3.11,3.11,0,0,1-.71-1.79V33.43H3.2a3.08,3.08,0,0,1-1.78-.64A2.16,2.16,0,0,1,.5,30.91V18.84A2.18,2.18,0,0,1,1.42,17a3.16,3.16,0,0,1,1.78-.64H16.56V3.25a3.11,3.11,0,0,1,.71-1.78A2.25,2.25,0,0,1,19.2.5H33.67a2.25,2.25,0,0,1,1.93,1,3.11,3.11,0,0,1,.71,1.78V16.32H49.49V3a2.63,2.63,0,0,1,.67-1.61A2.29,2.29,0,0,1,52.06.5H66.9a2.19,2.19,0,0,1,1.87.85A2.72,2.72,0,0,1,69.42,3V16.32H85.23A3.47,3.47,0,0,1,87.1,17a2.11,2.11,0,0,1,1,1.85V30.91a2.11,2.11,0,0,1-1,1.85,3.39,3.39,0,0,1-1.87.67H69.42v6.68a14.78,14.78,0,0,1-1,5L48.75,88.27c-.77,1.64-1.8,2.46-3.06,2.46H30.79a1.86,1.86,0,0,1-1.75-.9,1.64,1.64,0,0,1-.21-1.56Z"/><path class="cls-1" d="M169.18,25.52a3.16,3.16,0,0,1-.89,2.11A5.36,5.36,0,0,1,166.6,29L143.79,39.41V88.16a2.84,2.84,0,0,1-.67,1.7,2.33,2.33,0,0,1-2,.87H128.53a2.35,2.35,0,0,1-2-.87,2.84,2.84,0,0,1-.67-1.7V47.61L99,60a1.81,1.81,0,0,1-1.6.12,1.32,1.32,0,0,1-1-1.41V43.92a3.1,3.1,0,0,1,.89-2.14A5.24,5.24,0,0,1,99,40.46l67.56-31a1.71,1.71,0,0,1,1.6-.17,1.35,1.35,0,0,1,1,1.46Z"/><path class="cls-1" d="M209,13.39a3.53,3.53,0,0,1,1.87.67,2.12,2.12,0,0,1,1,1.85V28a2.12,2.12,0,0,1-1,1.85,3.44,3.44,0,0,1-1.87.67H184.61a3.08,3.08,0,0,1-1.77-.64,2.14,2.14,0,0,1-.92-1.88V15.91a2.12,2.12,0,0,1,.92-1.87,3.1,3.1,0,0,1,1.77-.65Zm0,24.08a3.47,3.47,0,0,1,1.87.68,2.11,2.11,0,0,1,1,1.84V52.06a2.12,2.12,0,0,1-1,1.85,3.44,3.44,0,0,1-1.87.67H184.61a3.08,3.08,0,0,1-1.77-.64,2.14,2.14,0,0,1-.92-1.88V40a2.12,2.12,0,0,1,.92-1.87,3.1,3.1,0,0,1,1.77-.65ZM243.9,63.31a3.1,3.1,0,0,1-.89,2.11,5.06,5.06,0,0,1-1.68,1.35L185.72,92.2a1.94,1.94,0,0,1-1.6.15,1.32,1.32,0,0,1-1-1.44V76.14A3.18,3.18,0,0,1,184,74a4.55,4.55,0,0,1,1.72-1.35l55.61-25.43a1.92,1.92,0,0,1,1.59-.15,1.31,1.31,0,0,1,1,1.44Z"/><path class="cls-1" d="M278.85,13.39a3.53,3.53,0,0,1,1.87.67,2.12,2.12,0,0,1,1,1.85V28a2.12,2.12,0,0,1-1,1.85,3.44,3.44,0,0,1-1.87.67H254.44a3.08,3.08,0,0,1-1.77-.64,2.14,2.14,0,0,1-.92-1.88V15.91a2.12,2.12,0,0,1,.92-1.87,3.1,3.1,0,0,1,1.77-.65Zm34.88,49.92a3.1,3.1,0,0,1-.89,2.11,5.06,5.06,0,0,1-1.68,1.35L255.55,92.2a1.94,1.94,0,0,1-1.6.15,1.32,1.32,0,0,1-1-1.44V76.14a3.18,3.18,0,0,1,.86-2.1,4.55,4.55,0,0,1,1.72-1.35l55.61-25.43a1.92,1.92,0,0,1,1.59-.15,1.31,1.31,0,0,1,1,1.44Z"/><path class="cls-1" d="M353.57,13.39a3.47,3.47,0,0,1,1.87.67,2.11,2.11,0,0,1,1,1.85V28a2.11,2.11,0,0,1-1,1.85,3.39,3.39,0,0,1-1.87.67h-24.4a3.13,3.13,0,0,1-1.78-.64,2.16,2.16,0,0,1-.92-1.88V15.91a2.15,2.15,0,0,1,.92-1.87,3.15,3.15,0,0,1,1.78-.65Zm0,24.08a3.41,3.41,0,0,1,1.87.68,2.1,2.1,0,0,1,1,1.84V52.06a2.11,2.11,0,0,1-1,1.85,3.39,3.39,0,0,1-1.87.67h-24.4a3.13,3.13,0,0,1-1.78-.64,2.16,2.16,0,0,1-.92-1.88V40a2.15,2.15,0,0,1,.92-1.87,3.15,3.15,0,0,1,1.78-.65Zm34.89,25.84a3.14,3.14,0,0,1-.89,2.11,5.06,5.06,0,0,1-1.68,1.35L330.28,92.2a1.94,1.94,0,0,1-1.6.15,1.32,1.32,0,0,1-1-1.44V76.14a3.18,3.18,0,0,1,.86-2.1,4.55,4.55,0,0,1,1.72-1.35l55.61-25.43a1.91,1.91,0,0,1,1.59-.15,1.32,1.32,0,0,1,1,1.44Zm-7.72-42.89h-9.39a3.48,3.48,0,0,1-2.2-.82A4.49,4.49,0,0,1,367.74,18L361.85,5.13a1.59,1.59,0,0,1-.12-1.52,1.36,1.36,0,0,1,1.47-.94h9.38a3.51,3.51,0,0,1,2.27.85,4.38,4.38,0,0,1,1.35,1.61L382.08,18a1.67,1.67,0,0,1,.16,1.52A1.37,1.37,0,0,1,380.74,20.42Zm19.25,0h-9.38a3.49,3.49,0,0,1-2.21-.82A4.49,4.49,0,0,1,387,18L381.1,5.13A1.64,1.64,0,0,1,381,3.61a1.36,1.36,0,0,1,1.47-.94h9.38a3.49,3.49,0,0,1,2.27.85,4.19,4.19,0,0,1,1.35,1.61L401.34,18a1.7,1.7,0,0,1,.15,1.52A1.36,1.36,0,0,1,400,20.42Z"/><path class="cls-1" d="M460.06,90.73H403.9a3.11,3.11,0,0,1-1.78-.64,2.15,2.15,0,0,1-.92-1.88V79.07a2.15,2.15,0,0,1,.92-1.87,3.13,3.13,0,0,1,1.78-.65H443V68.94H403.9a3.13,3.13,0,0,1-1.78-.65,2.15,2.15,0,0,1-.92-1.87V60.21a2.16,2.16,0,0,1,.92-1.88,3.11,3.11,0,0,1,1.78-.64H443V51H403.9a3.13,3.13,0,0,1-1.78-.65,2.15,2.15,0,0,1-.92-1.87V39.35a2.16,2.16,0,0,1,.92-1.88,3.11,3.11,0,0,1,1.78-.64h56.16a3.42,3.42,0,0,1,1.87.67,2.1,2.1,0,0,1,1,1.85V88.21a2.07,2.07,0,0,1-1,1.88A3.52,3.52,0,0,1,460.06,90.73Z"/><path class="cls-1" d="M529.6,30.5H495.45V44a3.11,3.11,0,0,1-.71,1.78,2.25,2.25,0,0,1-1.93,1H478.34a2.25,2.25,0,0,1-1.93-1,3.09,3.09,0,0,1-.7-1.78V15.91a2.12,2.12,0,0,1,.92-1.87,3.1,3.1,0,0,1,1.77-.65h23.36V3a2.65,2.65,0,0,1,.68-1.61,2.27,2.27,0,0,1,1.9-.85h14.84a2.2,2.2,0,0,1,1.87.85A2.7,2.7,0,0,1,521.69,3V13.39h33.78a1.38,1.38,0,0,1,1.48.94,1.61,1.61,0,0,1-.13,1.52L522.67,88.27a4.49,4.49,0,0,1-1.38,1.64,3.44,3.44,0,0,1-2.24.82H503.6a1.38,1.38,0,0,1-1.47-.93,1.66,1.66,0,0,1,.12-1.53Z"/><path class="cls-1" d="M575.32,39.93h15.45c1.27,0,1.72.8,1.35,2.41l-8.65,41.77a3.85,3.85,0,0,1-1.31,1.56,3.7,3.7,0,0,1-2.3.85H564.41c-1.35,0-1.82-.81-1.41-2.41l8.7-41.77A3.28,3.28,0,0,1,573,40.78,3.78,3.78,0,0,1,575.32,39.93Zm66.46-24.08a3.44,3.44,0,0,1,1.87.68,2.08,2.08,0,0,1,1,1.84V30.44a2.1,2.1,0,0,1-1,1.85,3.42,3.42,0,0,1-1.87.67h-27v55.2a2.84,2.84,0,0,1-.67,1.7,2.34,2.34,0,0,1-2,.87H599.48a2.35,2.35,0,0,1-2-.87,2.84,2.84,0,0,1-.67-1.7V33H567.1a3.08,3.08,0,0,1-1.77-.64,2.14,2.14,0,0,1-.92-1.88V18.37a2.12,2.12,0,0,1,.92-1.87,3.1,3.1,0,0,1,1.77-.65h29.74V3.25a3.09,3.09,0,0,1,.7-1.78,2.26,2.26,0,0,1,1.94-1h12.63a2.26,2.26,0,0,1,1.93,1,3.09,3.09,0,0,1,.7,1.78v12.6ZM636.2,39.93a3.78,3.78,0,0,1,2.33.85,3.28,3.28,0,0,1,1.29,1.56l8.65,41.77c.45,1.6,0,2.41-1.35,2.41H631.67a3.78,3.78,0,0,1-2.33-.85,3.28,3.28,0,0,1-1.29-1.56l-8.71-41.77c-.28-1.61.19-2.41,1.41-2.41Z"/><path class="cls-1" d="M710,30.5H675.83V44a3.09,3.09,0,0,1-.7,1.78,2.26,2.26,0,0,1-1.93,1H658.73a2.26,2.26,0,0,1-1.94-1,3.09,3.09,0,0,1-.7-1.78V15.91A2.15,2.15,0,0,1,657,14a3.1,3.1,0,0,1,1.78-.65h23.36V3a2.63,2.63,0,0,1,.67-1.61,2.27,2.27,0,0,1,1.9-.85h14.84a2.19,2.19,0,0,1,1.87.85A2.7,2.7,0,0,1,702.07,3V13.39h33.79a1.37,1.37,0,0,1,1.47.94,1.64,1.64,0,0,1-.12,1.52L703.06,88.27a4.69,4.69,0,0,1-1.38,1.64,3.48,3.48,0,0,1-2.24.82H684a1.36,1.36,0,0,1-1.47-.93,1.6,1.6,0,0,1,.12-1.53Z"/></g></g></svg>