<svg xmlns="http://www.w3.org/2000/svg" viewBox="0 0 237.65 76.72"><defs><style>.cls-1{fill:#c20005;}</style></defs><g id="レイヤー_2" data-name="レイヤー 2"><g id="レイヤー_1-2" data-name="レイヤー 1"><path class="cls-1" d="M59.57,75.29H2.15a2.46,2.46,0,0,1-1.42-.53A1.82,1.82,0,0,1,0,73.19V63.13a1.81,1.81,0,0,1,.73-1.56A2.39,2.39,0,0,1,2.15,61H46V25.1H2.15a2.41,2.41,0,0,1-1.42-.54A1.81,1.81,0,0,1,0,23V12.94a1.81,1.81,0,0,1,.73-1.56,2.41,2.41,0,0,1,1.42-.54H59.57a2.69,2.69,0,0,1,1.49.56,1.79,1.79,0,0,1,.81,1.54V73.19a1.77,1.77,0,0,1-.81,1.54A2.62,2.62,0,0,1,59.57,75.29Z"/><path class="cls-1" d="M97.12,22.41a9.34,9.34,0,0,0,.41-1.54A12.28,12.28,0,0,0,97.8,19l.1-.78V2.05A2.25,2.25,0,0,1,98.44.71,1.79,1.79,0,0,1,100,0h11.82a1.73,1.73,0,0,1,1.49.71,2.32,2.32,0,0,1,.51,1.34V18.26a16.13,16.13,0,0,1-.78,4.15L107.08,33l9.81,3.51a1.56,1.56,0,0,1,.37.13l.51.19a3.57,3.57,0,0,1,.49.24,2.08,2.08,0,0,1,.47.37A2,2,0,0,1,119,38a1.58,1.58,0,0,1,.15.66v12.5a1.77,1.77,0,0,1-.81,1.54,2.59,2.59,0,0,1-1.49.56l-17.62-6.3L84.57,73.24l-.1.1q-1,1.95-2.34,2H70.26a1.51,1.51,0,0,1-1.41-.75,1.29,1.29,0,0,1-.15-1.3L86,42.24l-13-4.64a2.41,2.41,0,0,1-1.42-.54,1.81,1.81,0,0,1-.73-1.56V23a1.9,1.9,0,0,1,.76-1.61,1.82,1.82,0,0,1,1.39-.49l20.8,7.42Z"/><path class="cls-1" d="M147.9,10.84a2.69,2.69,0,0,1,1.49.56,1.79,1.79,0,0,1,.81,1.54V23a1.79,1.79,0,0,1-.81,1.54,2.69,2.69,0,0,1-1.49.56H128.47a2.41,2.41,0,0,1-1.42-.54,1.81,1.81,0,0,1-.73-1.56V12.94a1.81,1.81,0,0,1,.73-1.56,2.41,2.41,0,0,1,1.42-.54Zm27.78,41.6a2.67,2.67,0,0,1-.7,1.76,4.18,4.18,0,0,1-1.35,1.12L129.35,76.51a1.46,1.46,0,0,1-1.27.13,1.1,1.1,0,0,1-.79-1.2V63.13a2.7,2.7,0,0,1,.69-1.75,3.72,3.72,0,0,1,1.37-1.13l44.28-21.19a1.43,1.43,0,0,1,1.27-.12,1.09,1.09,0,0,1,.78,1.2Z"/><path class="cls-1" d="M187.94,73.14V9.72a2.66,2.66,0,0,1,.56-1.49A1.79,1.79,0,0,1,190,7.42H200.1a1.79,1.79,0,0,1,1.54.81,2.66,2.66,0,0,1,.56,1.49V24.07L235.6,39a4.34,4.34,0,0,1,1.34,1.13,2.68,2.68,0,0,1,.71,1.76v12.3a1.09,1.09,0,0,1-.78,1.2,1.46,1.46,0,0,1-1.27-.13L202.2,40.38V73.14a2.41,2.41,0,0,1-.54,1.42,1.81,1.81,0,0,1-1.56.73H190a1.8,1.8,0,0,1-1.56-.73A2.41,2.41,0,0,1,187.94,73.14Z"/></g></g></svg>