<svg xmlns="http://www.w3.org/2000/svg" viewBox="0 0 819.86 96.69"><defs><style>.cls-1{fill:#c20005;stroke:#fff;stroke-miterlimit:10;}</style></defs><g id="レイヤー_2" data-name="レイヤー 2"><g id="レイヤー_1-2" data-name="レイヤー 1"><path class="cls-1" d="M46.06,90.73H3a2.2,2.2,0,0,1-1.87-.85A2.68,2.68,0,0,1,.5,88.27V45.32a2.72,2.72,0,0,1,.64-1.61A2.23,2.23,0,0,1,3,42.86H28.64V3a2.65,2.65,0,0,1,.68-1.61A2.21,2.21,0,0,1,31.16.5h14.9a2.17,2.17,0,0,1,1.86.85A2.72,2.72,0,0,1,48.57,3V13.39h20.6A3.15,3.15,0,0,1,71,14a2.15,2.15,0,0,1,.92,1.87V28a2.21,2.21,0,0,1-.92,1.9,3.06,3.06,0,0,1-1.78.68l-20.6-.06V44.91l21.95,5.86a3,3,0,0,1,1.69.62,2,2,0,0,1,.88,1.79V67.41a2,2,0,0,1-.88,1.76,3,3,0,0,1-1.69.65L48.57,64V88.27a2.63,2.63,0,0,1-.68,1.61A2.2,2.2,0,0,1,46.06,90.73Zm-25.63-19h8.21V61.91H20.43Z"/><path class="cls-1" d="M136,90.73H113a3.08,3.08,0,0,1-1.77-.64,2.13,2.13,0,0,1-.92-1.88V76.14a2.12,2.12,0,0,1,.92-1.87,3.08,3.08,0,0,1,1.77-.64h6V33.43h-4.78L101.87,88.27a3.55,3.55,0,0,1-1.05,1.61,2.75,2.75,0,0,1-2,.85H83.9a1.75,1.75,0,0,1-1.69-.85,2.26,2.26,0,0,1-.27-1.61L94.32,33.43H84.45a3.13,3.13,0,0,1-1.78-.64,2.16,2.16,0,0,1-.91-1.88V18.84A2.17,2.17,0,0,1,82.67,17a3.21,3.21,0,0,1,1.78-.64H95.31V3.25A3.09,3.09,0,0,1,96,1.47a2.25,2.25,0,0,1,1.93-1h14.47a2.25,2.25,0,0,1,1.93,1,3.11,3.11,0,0,1,.71,1.78V16.32h21a3.53,3.53,0,0,1,1.87.67,2.12,2.12,0,0,1,1,1.85V88.21a2.11,2.11,0,0,1-1,1.85A3.44,3.44,0,0,1,136,90.73ZM156.62,3l15.51,72.42a2.49,2.49,0,0,1-.34,1.61,1.73,1.73,0,0,1-1.68.85h-14.9a2.75,2.75,0,0,1-2-.85,3.08,3.08,0,0,1-1-1.61L136.69,3A2.09,2.09,0,0,1,137,1.35,1.82,1.82,0,0,1,138.71.5h14.84a2.75,2.75,0,0,1,2.06.85A3.64,3.64,0,0,1,156.62,3Z"/><path class="cls-1" d="M182.12,88.16V13.63a3.09,3.09,0,0,1,.7-1.79,2.26,2.26,0,0,1,1.93-1h12.63a2.26,2.26,0,0,1,1.94,1,3.09,3.09,0,0,1,.7,1.79V88.16a2.84,2.84,0,0,1-.67,1.7,2.35,2.35,0,0,1-2,.87H184.75a2.34,2.34,0,0,1-2-.87A2.84,2.84,0,0,1,182.12,88.16Zm65,2.57h-40a2.18,2.18,0,0,1-1.87-.85,2.7,2.7,0,0,1-.65-1.61V51.18a2.74,2.74,0,0,1,.65-1.61,2.2,2.2,0,0,1,1.87-.85h22.56V37H207.69a3.1,3.1,0,0,1-1.78-.65,2.12,2.12,0,0,1-.92-1.87V22.36a2.14,2.14,0,0,1,.92-1.88,3.08,3.08,0,0,1,1.78-.64h22.25v-8a2.63,2.63,0,0,1,.68-1.61,2.27,2.27,0,0,1,1.9-.85H247.6l2.27,5v5.45h2.51a5.2,5.2,0,0,0,1.41,1.58,3.42,3.42,0,0,0,2.15.76h8.15V34.43a2.09,2.09,0,0,1-1,1.84,3.44,3.44,0,0,1-1.87.68H249.68V50.77l13.06,5.86a3,3,0,0,1,1.69.62,2,2,0,0,1,.89,1.79V73.27a2.06,2.06,0,0,1-.89,1.76,2.9,2.9,0,0,1-1.69.65l-13.06-5.86V88.27a2.61,2.61,0,0,1-.67,1.61A2.21,2.21,0,0,1,247.17,90.73ZM221.48,75.32h8.28V67.77h-8.28Zm46.11-54.9h-9.38A3.44,3.44,0,0,1,256,19.6,4.57,4.57,0,0,1,254.59,18L248.7,5.13a1.64,1.64,0,0,1-.12-1.52,1.37,1.37,0,0,1,1.47-.94h9.38a3.37,3.37,0,0,1,2.24.85,5,5,0,0,1,1.38,1.61L268.94,18a1.64,1.64,0,0,1,.12,1.52A1.37,1.37,0,0,1,267.59,20.42Zm17.41,0h-9.38a3.46,3.46,0,0,1-2.24-.82A4.78,4.78,0,0,1,272,18L266.12,5.13A1.61,1.61,0,0,1,266,3.61a1.38,1.38,0,0,1,1.48-.94h9.38a3.37,3.37,0,0,1,2.23.85,5,5,0,0,1,1.38,1.61L286.35,18a1.59,1.59,0,0,1,.12,1.52A1.36,1.36,0,0,1,285,20.42Z"/><path class="cls-1" d="M287.84,88.16v-72a3.11,3.11,0,0,1,.71-1.78,2.25,2.25,0,0,1,1.93-1h12.63a2.25,2.25,0,0,1,1.93,1,3.11,3.11,0,0,1,.71,1.78V73.63h6.31a3.11,3.11,0,0,1,1.78.64,2.15,2.15,0,0,1,.92,1.87V88.21a2.15,2.15,0,0,1-.92,1.88,3.11,3.11,0,0,1-1.78.64H290.48a2.33,2.33,0,0,1-2-.87A2.85,2.85,0,0,1,287.84,88.16Zm68.24-72V88a3.11,3.11,0,0,1-.7,1.79,2.27,2.27,0,0,1-1.93,1H340.82a2.26,2.26,0,0,1-1.93-1,3.13,3.13,0,0,1-.71-1.79V30.73h-6.31a3.08,3.08,0,0,1-1.78-.64,2.13,2.13,0,0,1-.92-1.88V16.14a2.12,2.12,0,0,1,.92-1.87,3.08,3.08,0,0,1,1.78-.64h21.58a2.33,2.33,0,0,1,2,.87A2.84,2.84,0,0,1,356.08,16.2Z"/><path class="cls-1" d="M393.09,6.83v57.6a2.7,2.7,0,0,1-.65,1.61,2.19,2.19,0,0,1-1.87.85h-14.9A2.2,2.2,0,0,1,373.8,66a2.68,2.68,0,0,1-.64-1.61V6.83a2.66,2.66,0,0,1,.67-1.61,2.32,2.32,0,0,1,1.91-.85h14.83a2.24,2.24,0,0,1,1.84.85A2.68,2.68,0,0,1,393.09,6.83Zm-2.52,69a2.21,2.21,0,0,1,1.84.85,2.63,2.63,0,0,1,.68,1.61V93.73a2.68,2.68,0,0,1-.68,1.61,2.24,2.24,0,0,1-1.84.85h-14.9a2.25,2.25,0,0,1-1.84-.85,2.66,2.66,0,0,1-.67-1.61V78.32a2.61,2.61,0,0,1,.67-1.61,2.22,2.22,0,0,1,1.84-.85Z"/><path class="cls-1" d="M486,45.15l-20.3,43.12a4.49,4.49,0,0,1-1.38,1.64,3.44,3.44,0,0,1-2.24.82H446.64a1.37,1.37,0,0,1-1.5-.93,1.71,1.71,0,0,1,.15-1.53L458.85,59.8h-46a3.15,3.15,0,0,1-1.78-.65,2.15,2.15,0,0,1-.92-1.87V45.21a2.16,2.16,0,0,1,.92-1.88,3.13,3.13,0,0,1,1.78-.64h71.8a1.37,1.37,0,0,1,1.47.94A1.64,1.64,0,0,1,486,45.15ZM476.93,30.5H419.42a3.44,3.44,0,0,1-1.87-.67,2.12,2.12,0,0,1-1-1.85V15.91a2.12,2.12,0,0,1,1-1.85,3.53,3.53,0,0,1,1.87-.67h57.51a3.13,3.13,0,0,1,1.78.65,2.15,2.15,0,0,1,.92,1.87V28a2.16,2.16,0,0,1-.92,1.88A3.11,3.11,0,0,1,476.93,30.5Z"/><path class="cls-1" d="M519.46,13.39a3.53,3.53,0,0,1,1.87.67,2.12,2.12,0,0,1,1,1.85V28a2.12,2.12,0,0,1-1,1.85,3.44,3.44,0,0,1-1.87.67H495.05a3.08,3.08,0,0,1-1.77-.64,2.14,2.14,0,0,1-.92-1.88V15.91a2.12,2.12,0,0,1,.92-1.87,3.1,3.1,0,0,1,1.77-.65Zm34.88,49.92a3.13,3.13,0,0,1-.88,2.11,5.19,5.19,0,0,1-1.69,1.35L496.16,92.2a1.94,1.94,0,0,1-1.6.15,1.32,1.32,0,0,1-1-1.44V76.14a3.18,3.18,0,0,1,.86-2.1,4.63,4.63,0,0,1,1.72-1.35l55.61-25.43a1.92,1.92,0,0,1,1.59-.15,1.31,1.31,0,0,1,1,1.44Z"/><path class="cls-1" d="M644.46,19.84a3.42,3.42,0,0,1,1.87.67,2.09,2.09,0,0,1,1,1.85V34.43a2.09,2.09,0,0,1-1,1.84,3.44,3.44,0,0,1-1.87.68H619.57L622,50.77h28.57a3.41,3.41,0,0,1,1.87.68,2.09,2.09,0,0,1,1,1.84V65.36a2.09,2.09,0,0,1-1,1.85,3.39,3.39,0,0,1-1.87.67h-25.5l3.61,20.39a2.19,2.19,0,0,1-.27,1.64,1.76,1.76,0,0,1-1.69.82h-14.9a2.77,2.77,0,0,1-2-.85,3.51,3.51,0,0,1-1-1.61l-3.62-20.39H569.78a3.13,3.13,0,0,1-1.78-.64,2.16,2.16,0,0,1-.92-1.88V53.29a2.15,2.15,0,0,1,.92-1.87,3.15,3.15,0,0,1,1.78-.65h32.38L599.64,37H575.91a3.1,3.1,0,0,1-1.77-.65,2.12,2.12,0,0,1-.92-1.87V22.36a2.14,2.14,0,0,1,.92-1.88,3.08,3.08,0,0,1,1.77-.64h20.73L593.63,3a2.15,2.15,0,0,1,.31-1.61A1.81,1.81,0,0,1,595.66.5h14.83a2.77,2.77,0,0,1,2,.85,3.56,3.56,0,0,1,1,1.61l3,16.88Z"/><path class="cls-1" d="M690,13.39a3.53,3.53,0,0,1,1.87.67,2.12,2.12,0,0,1,1,1.85V28a2.12,2.12,0,0,1-1,1.85,3.44,3.44,0,0,1-1.87.67H665.54a3.08,3.08,0,0,1-1.77-.64,2.14,2.14,0,0,1-.92-1.88V15.91a2.12,2.12,0,0,1,.92-1.87,3.1,3.1,0,0,1,1.77-.65Zm34.88,49.92a3.13,3.13,0,0,1-.88,2.11,5.19,5.19,0,0,1-1.69,1.35L666.65,92.2a1.94,1.94,0,0,1-1.6.15,1.32,1.32,0,0,1-1-1.44V76.14a3.18,3.18,0,0,1,.86-2.1,4.63,4.63,0,0,1,1.72-1.35l55.61-25.43a1.92,1.92,0,0,1,1.59-.15,1.31,1.31,0,0,1,1,1.44Z"/><path class="cls-1" d="M780.3,33.43H758.53L755,44.68a3.2,3.2,0,0,1-1.29,1.61,3.74,3.74,0,0,1-2.33.85H735.91q-2,0-1.35-2.46L747.68,3A3.35,3.35,0,0,1,749,1.38,3.65,3.65,0,0,1,751.3.5h15.45A1.49,1.49,0,0,1,768,1a1.37,1.37,0,0,1,.3,1,5.44,5.44,0,0,1-.18,1l-4.17,13.36h19.56l1.59,3.4a4.78,4.78,0,0,0,1.38,1.64,3.46,3.46,0,0,0,2.24.82h14.9L783.79,88.27a3.51,3.51,0,0,1-1,1.61,2.77,2.77,0,0,1-2,.85h-14.9a1.75,1.75,0,0,1-1.69-.85,2.26,2.26,0,0,1-.27-1.61Zm19.44-13h-9.38a3.44,3.44,0,0,1-2.24-.82A4.57,4.57,0,0,1,786.74,18L780.85,5.13a1.61,1.61,0,0,1-.12-1.52,1.36,1.36,0,0,1,1.47-.94h9.38a3.39,3.39,0,0,1,2.24.85,5.23,5.23,0,0,1,1.38,1.61L801.08,18a1.61,1.61,0,0,1,.13,1.52A1.37,1.37,0,0,1,799.74,20.42Zm18,0h-9.38a3.46,3.46,0,0,1-2.24-.82A4.78,4.78,0,0,1,804.76,18L798.88,5.13a1.61,1.61,0,0,1-.13-1.52,1.38,1.38,0,0,1,1.48-.94h9.38a3.41,3.41,0,0,1,2.24.85,5,5,0,0,1,1.37,1.61L819.11,18a1.59,1.59,0,0,1,.12,1.52A1.36,1.36,0,0,1,817.76,20.42Z"/></g></g></svg>