<svg xmlns="http://www.w3.org/2000/svg" viewBox="0 0 254.65 80.86"><defs><style>.cls-1{fill:#c20005;stroke:#fff;stroke-miterlimit:10;}</style></defs><g id="レイヤー_2" data-name="レイヤー 2"><g id="レイヤー_1-2" data-name="レイヤー 1"><path class="cls-1" d="M75.42,3a3.47,3.47,0,0,1,1.87.67,2.11,2.11,0,0,1,1,1.85V17.61a2.11,2.11,0,0,1-1,1.85,3.47,3.47,0,0,1-1.87.67H51.82V63.25H81.56a3.47,3.47,0,0,1,1.87.68,2.11,2.11,0,0,1,1,1.84V77.84a2.11,2.11,0,0,1-1,1.85,3.44,3.44,0,0,1-1.87.67H3.2a3.08,3.08,0,0,1-1.78-.64A2.16,2.16,0,0,1,.5,77.84V65.77a2.15,2.15,0,0,1,.92-1.87,3.1,3.1,0,0,1,1.78-.65H31.89V20.13H9.33a3.05,3.05,0,0,1-1.78-.65,2.15,2.15,0,0,1-.92-1.87V5.54a2.16,2.16,0,0,1,.92-1.88A3.11,3.11,0,0,1,9.33,3Z"/><path class="cls-1" d="M93.84,43.57V3.25a3.09,3.09,0,0,1,.7-1.78,2.25,2.25,0,0,1,1.93-1H109.1a2.25,2.25,0,0,1,1.93,1,3.11,3.11,0,0,1,.71,1.78V43.57a2.9,2.9,0,0,1-.67,1.7,2.35,2.35,0,0,1-2,.87H96.47a2.33,2.33,0,0,1-2-.87A2.84,2.84,0,0,1,93.84,43.57Zm40,12.71a9.84,9.84,0,0,0,.62-2.05,17.4,17.4,0,0,0,.3-2.11l.06-.82V3a2.65,2.65,0,0,1,.68-1.61,2.27,2.27,0,0,1,1.9-.85h14.84a2.2,2.2,0,0,1,1.87.85A2.77,2.77,0,0,1,154.72,3V51.3a14.81,14.81,0,0,1-1,5L143.62,77.9c-.73,1.64-1.76,2.46-3.06,2.46h-14.9a1.86,1.86,0,0,1-1.75-.9,1.64,1.64,0,0,1-.21-1.56Z"/><path class="cls-1" d="M226.74,20.13H170.08a3,3,0,0,1-1.77-.65,2.12,2.12,0,0,1-.92-1.87V5.54a2.14,2.14,0,0,1,.92-1.88A3.08,3.08,0,0,1,170.08,3h82.47A1.36,1.36,0,0,1,254,4a1.61,1.61,0,0,1-.12,1.52L238.63,38a4.87,4.87,0,0,1-1.41,1.61,3.41,3.41,0,0,1-2.21.85H219.56a1.37,1.37,0,0,1-1.5-.94,1.7,1.7,0,0,1,.15-1.52ZM193.32,48.72a10.15,10.15,0,0,0,.49-1.84c.16-.84.29-1.58.37-2.2l.12-.94V28.1a2.63,2.63,0,0,1,.68-1.61,2.27,2.27,0,0,1,1.9-.85h14.84a2.2,2.2,0,0,1,1.87.85,2.74,2.74,0,0,1,.64,1.61V43.74a18.18,18.18,0,0,1-1,5L199.82,77.9c-.78,1.64-1.8,2.46-3.07,2.46H181.86a1.86,1.86,0,0,1-1.75-.9,1.67,1.67,0,0,1-.22-1.56Z"/></g></g></svg>