<svg xmlns="http://www.w3.org/2000/svg" viewBox="0 0 892.24 134.6"><defs><style>.cls-1{stroke:#fff;stroke-miterlimit:10;}.cls-2{fill:#c20005;}</style></defs><g id="レイヤー_2" data-name="レイヤー 2"><g id="レイヤー_1-2" data-name="レイヤー 1"><path class="cls-1" d="M119.78,132,3.41,131.58A3.39,3.39,0,0,1,1,130.65C.35,130,.33,129.14.94,128L10,110.71A5.94,5.94,0,0,1,12.88,108a8,8,0,0,1,3.35-.91l88.86.31L137.4,45.79l-88.86-.31a3.45,3.45,0,0,1-2.39-.93c-.66-.62-.69-1.52-.08-2.69l9-17.25A6,6,0,0,1,58,21.93,8.24,8.24,0,0,1,61.36,21l116.37.41a3.77,3.77,0,0,1,2.52,1c.75.64.83,1.52.25,2.64L126.32,128.41a6,6,0,0,1-3,2.63A8.85,8.85,0,0,1,119.78,132Z"/><path class="cls-1" d="M265.78,132.51l-116.37-.41a3.48,3.48,0,0,1-2.39-.93c-.67-.62-.69-1.52-.08-2.69l9-17.25a6,6,0,0,1,2.89-2.68,8.24,8.24,0,0,1,3.36-.91l88.86.31L283.4,46.31,194.54,46a3.39,3.39,0,0,1-2.39-.93c-.67-.61-.69-1.51-.08-2.68l9.05-17.26A5.94,5.94,0,0,1,204,22.45a8,8,0,0,1,3.35-.91L323.73,22a3.79,3.79,0,0,1,2.51,1c.76.65.84,1.53.25,2.64L272.32,128.92a6,6,0,0,1-3,2.64A9.2,9.2,0,0,1,265.78,132.51Z"/><path class="cls-1" d="M444.41,51.24a8.13,8.13,0,0,1-2.92,2.93,22.25,22.25,0,0,1-3.83,2l-90.92,32-10.54,20.1,80.35.29a3.39,3.39,0,0,1,2.39.93c.67.62.7,1.51.08,2.69l-9,17.25a6.1,6.1,0,0,1-2.89,2.68,8.4,8.4,0,0,1-3.36.91l-107.86-.39a3.92,3.92,0,0,1-2.53-.93c-.77-.62-.85-1.51-.23-2.68l27.13-51.77q1.45-2.76,6.75-4.92l25-8.81,10.56-48q.77-3.52,4-3.51l24.94.09a4.06,4.06,0,0,1,3.15,1.27,2.33,2.33,0,0,1,.84,2.27L387.75,51l45.58-16,19.59.07Zm1.32-18.79-15.14-.06a3.74,3.74,0,0,1-3-1.18,3.53,3.53,0,0,1-1-2.35l.11-18.38c-.17-.56.15-1.29,1-2.18A3.89,3.89,0,0,1,430.73,7l15.14,0a3.68,3.68,0,0,1,3,1.23,3.91,3.91,0,0,1,1,2.31l-.12,18.38c.17.56-.14,1.28-.94,2.18A4,4,0,0,1,445.73,32.45Zm28.11.1-15.15-.06a3.74,3.74,0,0,1-3-1.18,3.55,3.55,0,0,1-1-2.36l.11-18.37c-.17-.56.15-1.29.95-2.18a3.91,3.91,0,0,1,3.08-1.33l15.14,0a3.64,3.64,0,0,1,3,1.23,3.85,3.85,0,0,1,1,2.31L477.85,29c.17.56-.14,1.28-.94,2.17A3.91,3.91,0,0,1,473.84,32.55Z"/><path class="cls-1" d="M516.33,133.39l-37.2-.13a3.39,3.39,0,0,1-2.39-.93c-.67-.62-.7-1.51-.08-2.68l9-17.26a6.1,6.1,0,0,1,2.89-2.68,8.4,8.4,0,0,1,3.36-.91l9.69,0,30.12-57.46-7.72,0-61,78.33a10.8,10.8,0,0,1-2.89,2.3,7.56,7.56,0,0,1-3.9,1.2l-24-.08c-1.32,0-2-.42-2.08-1.23a3.15,3.15,0,0,1,.76-2.3L492,51.24l-15.93-.06a3.39,3.39,0,0,1-2.39-.93c-.67-.62-.69-1.51-.08-2.68l9.05-17.26a5.94,5.94,0,0,1,2.89-2.67,8,8,0,0,1,3.35-.91l17.51.06,9.8-18.68a8.23,8.23,0,0,1,2.47-2.55,6.3,6.3,0,0,1,3.84-1.37l23.36.08c1.32,0,2.11.47,2.39,1.39a3.31,3.31,0,0,1-.2,2.56L538.25,26.9l33.84.12a3.77,3.77,0,0,1,2.51,1c.76.65.84,1.53.25,2.65l-52,99.17a6,6,0,0,1-3,2.63A8.89,8.89,0,0,1,516.33,133.39Zm89.89-93-20.1,71.25a5.77,5.77,0,0,1-1.75,2.31,4.94,4.94,0,0,1-3.36,1.2l-24-.08a2.86,2.86,0,0,1-2.63-1.23,2.64,2.64,0,0,1-.38-2.31l20.1-71.26a4.84,4.84,0,0,1,1.7-2.3,5.08,5.08,0,0,1,3.41-1.2l24,.08a2.87,2.87,0,0,1,2.63,1.23A3,3,0,0,1,606.22,40.4Zm-7.08-10.52L584,29.83a3.77,3.77,0,0,1-3-1.18,3.53,3.53,0,0,1-1-2.36l.11-18.37c-.17-.56.15-1.29,1-2.18a3.89,3.89,0,0,1,3.07-1.33l15.14,0a3.62,3.62,0,0,1,3,1.23,3.91,3.91,0,0,1,1,2.31l-.12,18.37c.17.56-.14,1.29-.94,2.18A3.92,3.92,0,0,1,599.14,29.88Zm31.07.11-15.14,0a3.72,3.72,0,0,1-3-1.19,3.46,3.46,0,0,1-1-2.35L611.19,8c-.17-.55.15-1.28.95-2.17a3.87,3.87,0,0,1,3.07-1.33l15.14.05a3.61,3.61,0,0,1,3,1.23,3.91,3.91,0,0,1,1,2.31l-.12,18.37c.17.56-.14,1.29-.94,2.18A3.91,3.91,0,0,1,630.21,30Z"/><path class="cls-1" d="M701.87,72q4.26,0,1.36,5.54l-16.77,32,18.7.07,14.49-27.64a8.19,8.19,0,0,1,2.48-2.55A6.37,6.37,0,0,1,726,78l20.38.08c1.32,0,2.12.47,2.4,1.39a3.32,3.32,0,0,1-.2,2.56l-25.42,48.49a6,6,0,0,1-2.89,2.68,8.24,8.24,0,0,1-3.36.91l-70.75-.25a3.92,3.92,0,0,1-2.53-.93c-.77-.62-.85-1.51-.23-2.69l17.78-33.92-17.32-.06-26,34a10.8,10.8,0,0,1-2.89,2.29,7.58,7.58,0,0,1-3.9,1.21l-24-.09c-1.32,0-2-.41-2.08-1.22a3.18,3.18,0,0,1,.76-2.31L679,8.26A11.1,11.1,0,0,1,681.88,6a7.51,7.51,0,0,1,4-1.21l23.94.09c1.25,0,2,.41,2.09,1.22a2.87,2.87,0,0,1-.67,2.31L662.49,71.81Z"/><path class="cls-1" d="M798.73,102.91c1.26,0,2,.41,2.33,1.22a2.7,2.7,0,0,1-.11,2.31l-11.55,22a7.28,7.28,0,0,1-2.3,2.3,6.21,6.21,0,0,1-3.6,1.2l-24-.08c-1.25,0-2-.42-2.33-1.23a2.74,2.74,0,0,1,.12-2.31l11.55-22a7.23,7.23,0,0,1,2.29-2.3,6.22,6.22,0,0,1,3.61-1.2ZM889.21.85c1.25,0,2,.41,2.33,1.22a2.73,2.73,0,0,1-.12,2.31L854.1,75.58a7.23,7.23,0,0,1-2.29,2.3,6.2,6.2,0,0,1-3.61,1.2l-8.91,0L815.15,79,807.9,92.78a7.21,7.21,0,0,1-2.24,2.3A6.11,6.11,0,0,1,802,96.29l-24-.09c-1.32,0-2.12-.41-2.38-1.22a2.86,2.86,0,0,1,.16-2.31l19.67-37.52a7.16,7.16,0,0,1,2.25-2.3,6.08,6.08,0,0,1,3.65-1.21l33.06.12L846.83,28l-42.94-.15-7.82,14.91a7.13,7.13,0,0,1-2.29,2.3,6.1,6.1,0,0,1-3.61,1.2l-24-.08c-1.32,0-2.11-.41-2.38-1.23a2.83,2.83,0,0,1,.17-2.3L784.15,4a7.36,7.36,0,0,1,2.25-2.3A6.11,6.11,0,0,1,790.05.5Z"/><path class="cls-2" d="M119.78,132,3.41,131.58A3.39,3.39,0,0,1,1,130.65C.35,130,.33,129.14.94,128L10,110.71A5.94,5.94,0,0,1,12.88,108a8,8,0,0,1,3.35-.91l88.86.31L137.4,45.79l-88.86-.31a3.45,3.45,0,0,1-2.39-.93c-.66-.62-.69-1.52-.08-2.69l9-17.25A6,6,0,0,1,58,21.93,8.24,8.24,0,0,1,61.36,21l116.37.41a3.77,3.77,0,0,1,2.52,1c.75.64.83,1.52.25,2.64L126.32,128.41a6,6,0,0,1-3,2.63A8.85,8.85,0,0,1,119.78,132Z"/><path class="cls-2" d="M265.78,132.51l-116.37-.41a3.48,3.48,0,0,1-2.39-.93c-.67-.62-.69-1.52-.08-2.69l9-17.25a6,6,0,0,1,2.89-2.68,8.24,8.24,0,0,1,3.36-.91l88.86.31L283.4,46.31,194.54,46a3.39,3.39,0,0,1-2.39-.93c-.67-.61-.69-1.51-.08-2.68l9.05-17.26A5.94,5.94,0,0,1,204,22.45a8,8,0,0,1,3.35-.91L323.73,22a3.79,3.79,0,0,1,2.51,1c.76.65.84,1.53.25,2.64L272.32,128.92a6,6,0,0,1-3,2.64A9.2,9.2,0,0,1,265.78,132.51Z"/><path class="cls-2" d="M444.41,51.24a8.13,8.13,0,0,1-2.92,2.93,22.25,22.25,0,0,1-3.83,2l-90.92,32-10.54,20.1,80.35.29a3.39,3.39,0,0,1,2.39.93c.67.62.7,1.51.08,2.69l-9,17.25a6.1,6.1,0,0,1-2.89,2.68,8.4,8.4,0,0,1-3.36.91l-107.86-.39a3.92,3.92,0,0,1-2.53-.93c-.77-.62-.85-1.51-.23-2.68l27.13-51.77q1.45-2.76,6.75-4.92l25-8.81,10.56-48q.77-3.52,4-3.51l24.94.09a4.06,4.06,0,0,1,3.15,1.27,2.33,2.33,0,0,1,.84,2.27L387.75,51l45.58-16,19.59.07Zm1.32-18.79-15.14-.06a3.74,3.74,0,0,1-3-1.18,3.53,3.53,0,0,1-1-2.35l.11-18.38c-.17-.56.15-1.29,1-2.18A3.89,3.89,0,0,1,430.73,7l15.14,0a3.68,3.68,0,0,1,3,1.23,3.91,3.91,0,0,1,1,2.31l-.12,18.38c.17.56-.14,1.28-.94,2.18A4,4,0,0,1,445.73,32.45Zm28.11.1-15.15-.06a3.74,3.74,0,0,1-3-1.18,3.55,3.55,0,0,1-1-2.36l.11-18.37c-.17-.56.15-1.29.95-2.18a3.91,3.91,0,0,1,3.08-1.33l15.14,0a3.64,3.64,0,0,1,3,1.23,3.85,3.85,0,0,1,1,2.31L477.85,29c.17.56-.14,1.28-.94,2.17A3.91,3.91,0,0,1,473.84,32.55Z"/><path class="cls-2" d="M516.33,133.39l-37.2-.13a3.39,3.39,0,0,1-2.39-.93c-.67-.62-.7-1.51-.08-2.68l9-17.26a6.1,6.1,0,0,1,2.89-2.68,8.4,8.4,0,0,1,3.36-.91l9.69,0,30.12-57.46-7.72,0-61,78.33a10.8,10.8,0,0,1-2.89,2.3,7.56,7.56,0,0,1-3.9,1.2l-24-.08c-1.32,0-2-.42-2.08-1.23a3.15,3.15,0,0,1,.76-2.3L492,51.24l-15.93-.06a3.39,3.39,0,0,1-2.39-.93c-.67-.62-.69-1.51-.08-2.68l9.05-17.26a5.94,5.94,0,0,1,2.89-2.67,8,8,0,0,1,3.35-.91l17.51.06,9.8-18.68a8.23,8.23,0,0,1,2.47-2.55,6.3,6.3,0,0,1,3.84-1.37l23.36.08c1.32,0,2.11.47,2.39,1.39a3.31,3.31,0,0,1-.2,2.56L538.25,26.9l33.84.12a3.77,3.77,0,0,1,2.51,1c.76.65.84,1.53.25,2.65l-52,99.17a6,6,0,0,1-3,2.63A8.89,8.89,0,0,1,516.33,133.39Zm89.89-93-20.1,71.25a5.77,5.77,0,0,1-1.75,2.31,4.94,4.94,0,0,1-3.36,1.2l-24-.08a2.86,2.86,0,0,1-2.63-1.23,2.64,2.64,0,0,1-.38-2.31l20.1-71.26a4.84,4.84,0,0,1,1.7-2.3,5.08,5.08,0,0,1,3.41-1.2l24,.08a2.87,2.87,0,0,1,2.63,1.23A3,3,0,0,1,606.22,40.4Zm-7.08-10.52L584,29.83a3.77,3.77,0,0,1-3-1.18,3.53,3.53,0,0,1-1-2.36l.11-18.37c-.17-.56.15-1.29,1-2.18a3.89,3.89,0,0,1,3.07-1.33l15.14,0a3.62,3.62,0,0,1,3,1.23,3.91,3.91,0,0,1,1,2.31l-.12,18.37c.17.56-.14,1.29-.94,2.18A3.92,3.92,0,0,1,599.14,29.88Zm31.07.11-15.14,0a3.72,3.72,0,0,1-3-1.19,3.46,3.46,0,0,1-1-2.35L611.19,8c-.17-.55.15-1.28.95-2.17a3.87,3.87,0,0,1,3.07-1.33l15.14.05a3.61,3.61,0,0,1,3,1.23,3.91,3.91,0,0,1,1,2.31l-.12,18.37c.17.56-.14,1.29-.94,2.18A3.91,3.91,0,0,1,630.21,30Z"/><path class="cls-2" d="M701.87,72q4.26,0,1.36,5.54l-16.77,32,18.7.07,14.49-27.64a8.19,8.19,0,0,1,2.48-2.55A6.37,6.37,0,0,1,726,78l20.38.08c1.32,0,2.12.47,2.4,1.39a3.32,3.32,0,0,1-.2,2.56l-25.42,48.49a6,6,0,0,1-2.89,2.68,8.24,8.24,0,0,1-3.36.91l-70.75-.25a3.92,3.92,0,0,1-2.53-.93c-.77-.62-.85-1.51-.23-2.69l17.78-33.92-17.32-.06-26,34a10.8,10.8,0,0,1-2.89,2.29,7.58,7.58,0,0,1-3.9,1.21l-24-.09c-1.32,0-2-.41-2.08-1.22a3.18,3.18,0,0,1,.76-2.31L679,8.26A11.1,11.1,0,0,1,681.88,6a7.51,7.51,0,0,1,4-1.21l23.94.09c1.25,0,2,.41,2.09,1.22a2.87,2.87,0,0,1-.67,2.31L662.49,71.81Z"/><path class="cls-2" d="M798.73,102.91c1.26,0,2,.41,2.33,1.22a2.7,2.7,0,0,1-.11,2.31l-11.55,22a7.28,7.28,0,0,1-2.3,2.3,6.21,6.21,0,0,1-3.6,1.2l-24-.08c-1.25,0-2-.42-2.33-1.23a2.74,2.74,0,0,1,.12-2.31l11.55-22a7.23,7.23,0,0,1,2.29-2.3,6.22,6.22,0,0,1,3.61-1.2ZM889.21.85c1.25,0,2,.41,2.33,1.22a2.73,2.73,0,0,1-.12,2.31L854.1,75.58a7.23,7.23,0,0,1-2.29,2.3,6.2,6.2,0,0,1-3.61,1.2l-8.91,0L815.15,79,807.9,92.78a7.21,7.21,0,0,1-2.24,2.3A6.11,6.11,0,0,1,802,96.29l-24-.09c-1.32,0-2.12-.41-2.38-1.22a2.86,2.86,0,0,1,.16-2.31l19.67-37.52a7.16,7.16,0,0,1,2.25-2.3,6.08,6.08,0,0,1,3.65-1.21l33.06.12L846.83,28l-42.94-.15-7.82,14.91a7.13,7.13,0,0,1-2.29,2.3,6.1,6.1,0,0,1-3.61,1.2l-24-.08c-1.32,0-2.11-.41-2.38-1.23a2.83,2.83,0,0,1,.17-2.3L784.15,4a7.36,7.36,0,0,1,2.25-2.3A6.11,6.11,0,0,1,790.05.5Z"/></g></g></svg>