<svg xmlns="http://www.w3.org/2000/svg" viewBox="0 0 410.69 82.41"><defs><style>.cls-1{fill:#c20005;}</style></defs><g id="レイヤー_2" data-name="レイヤー 2"><g id="レイヤー_1-2" data-name="レイヤー 1"><path class="cls-1" d="M59.57,75.2H2.15a2.41,2.41,0,0,1-1.42-.54A1.81,1.81,0,0,1,0,73.1V63a1.82,1.82,0,0,1,.73-1.57,2.46,2.46,0,0,1,1.42-.53H46V25H2.15a2.41,2.41,0,0,1-1.42-.54A1.8,1.8,0,0,1,0,22.9V12.84a1.81,1.81,0,0,1,.73-1.56,2.41,2.41,0,0,1,1.42-.54H59.57a2.69,2.69,0,0,1,1.49.56,1.79,1.79,0,0,1,.81,1.54V73.1a1.76,1.76,0,0,1-.81,1.53A2.64,2.64,0,0,1,59.57,75.2Z"/><path class="cls-1" d="M133.74,75.2H76.32a2.41,2.41,0,0,1-1.42-.54,1.81,1.81,0,0,1-.73-1.56V63a1.82,1.82,0,0,1,.73-1.57,2.46,2.46,0,0,1,1.42-.53h43.85V25H76.32a2.41,2.41,0,0,1-1.42-.54,1.8,1.8,0,0,1-.73-1.56V12.84a1.81,1.81,0,0,1,.73-1.56,2.41,2.41,0,0,1,1.42-.54h57.42a2.69,2.69,0,0,1,1.49.56,1.79,1.79,0,0,1,.81,1.54V73.1a1.76,1.76,0,0,1-.81,1.53A2.64,2.64,0,0,1,133.74,75.2Z"/><path class="cls-1" d="M203,27.54a2.53,2.53,0,0,1-.69,1.71,5.45,5.45,0,0,1-1.36,1.17L164.4,49.22V60.94h39.65a2.46,2.46,0,0,1,1.42.53A1.82,1.82,0,0,1,206.2,63V73.1a1.81,1.81,0,0,1-.73,1.56,2.41,2.41,0,0,1-1.42.54H150.83a2.73,2.73,0,0,1-1.49-.54,1.75,1.75,0,0,1-.8-1.56V42.92c0-1.07.68-2,2.05-2.88l10-5.18L153.47,6.93c-.36-1.36,0-2,1.07-2h12.31a3,3,0,0,1,1.88.74,2.46,2.46,0,0,1,1,1.31L175,27.49l18.31-9.42H203Zm-4.2-10.94h-7.47a2.7,2.7,0,0,1-1.78-.68,3.79,3.79,0,0,1-1.1-1.37L183.74,3.86a1.41,1.41,0,0,1-.1-1.27,1.1,1.1,0,0,1,1.17-.78h7.48a2.64,2.64,0,0,1,1.78.7,4.5,4.5,0,0,1,1.1,1.35l4.68,10.69a1.41,1.41,0,0,1,.1,1.27A1.09,1.09,0,0,1,198.78,16.6Zm13.87,0h-7.47a2.72,2.72,0,0,1-1.79-.68,4,4,0,0,1-1.1-1.37L197.61,3.86a1.41,1.41,0,0,1-.1-1.27,1.09,1.09,0,0,1,1.17-.78h7.47a2.62,2.62,0,0,1,1.78.7A4.21,4.21,0,0,1,209,3.86l4.69,10.69a1.41,1.41,0,0,1,.1,1.27A1.09,1.09,0,0,1,212.65,16.6Z"/><path class="cls-1" d="M252.39,75.2H234a2.41,2.41,0,0,1-1.41-.54,1.82,1.82,0,0,1-.74-1.56V63a1.83,1.83,0,0,1,.74-1.57,2.46,2.46,0,0,1,1.41-.53h4.79V27.44H235l-9.81,45.7a3.1,3.1,0,0,1-.83,1.35,2.2,2.2,0,0,1-1.62.71H210.89a1.37,1.37,0,0,1-1.34-.71,1.91,1.91,0,0,1-.22-1.35l9.86-45.7h-7.86a2.41,2.41,0,0,1-1.42-.54,1.79,1.79,0,0,1-.73-1.56V15.28a1.81,1.81,0,0,1,.73-1.56,2.41,2.41,0,0,1,1.42-.54H220V2.29a2.66,2.66,0,0,1,.56-1.48A1.79,1.79,0,0,1,222.07,0h11.52a1.77,1.77,0,0,1,1.54.81,2.59,2.59,0,0,1,.56,1.48V13.18h16.7a2.64,2.64,0,0,1,1.49.57,1.76,1.76,0,0,1,.81,1.53V73.1a1.76,1.76,0,0,1-.81,1.53A2.64,2.64,0,0,1,252.39,75.2Zm14.07-60.41H259a2.67,2.67,0,0,1-1.78-.68,3.93,3.93,0,0,1-1.1-1.37L251.42,2.05a1.4,1.4,0,0,1-.1-1.27A1.09,1.09,0,0,1,252.49,0H260a2.63,2.63,0,0,1,1.78.71,4.19,4.19,0,0,1,1.1,1.34l4.69,10.69a1.41,1.41,0,0,1,.1,1.27A1.09,1.09,0,0,1,266.46,14.79Zm6.2,6.11,8.49,41.5a2.13,2.13,0,0,1-.27,1.35,1.36,1.36,0,0,1-1.34.7H267.68a2.19,2.19,0,0,1-1.62-.7,2.69,2.69,0,0,1-.78-1.35l-8.49-41.5a1.85,1.85,0,0,1,.24-1.34,1.42,1.42,0,0,1,1.37-.71h11.81a2.16,2.16,0,0,1,1.62.71A3.07,3.07,0,0,1,272.66,20.9Zm9.13-6.11h-7.47a2.69,2.69,0,0,1-1.79-.68,3.78,3.78,0,0,1-1.09-1.37L266.75,2.05a1.4,1.4,0,0,1-.1-1.27A1.09,1.09,0,0,1,267.82,0h7.47a2.68,2.68,0,0,1,1.79.71,4.28,4.28,0,0,1,1.09,1.34l4.69,10.69A1.41,1.41,0,0,1,283,14,1.08,1.08,0,0,1,281.79,14.79Z"/><path class="cls-1" d="M325.29,39.06c1.4,0,2.1,1.08,2.1,3.23V60.94h9.23V44.82a2.72,2.72,0,0,1,.56-1.49,1.8,1.8,0,0,1,1.54-.8h10.06a1.8,1.8,0,0,1,1.54.8,2.72,2.72,0,0,1,.56,1.49V73.1a1.84,1.84,0,0,1-.73,1.56,2.41,2.41,0,0,1-1.42.54H313.82a2.73,2.73,0,0,1-1.49-.54,1.76,1.76,0,0,1-.81-1.56V53.32H303l-4.05,19.82a3.1,3.1,0,0,1-.83,1.35,2.2,2.2,0,0,1-1.62.71H284.62a1.37,1.37,0,0,1-1.34-.71,1.91,1.91,0,0,1-.22-1.35L297.61,2.05a3.07,3.07,0,0,1,.8-1.34A2.16,2.16,0,0,1,300.05,0h11.82a1.45,1.45,0,0,1,1.34.71,1.87,1.87,0,0,1,.27,1.34l-7.62,37Z"/><path class="cls-1" d="M408.69,5.89a1.76,1.76,0,0,1,1.47.71,2.29,2.29,0,0,1,.53,1.34V49.45a2.29,2.29,0,0,1-.53,1.34,1.76,1.76,0,0,1-1.47.71H392.38v8a2.33,2.33,0,0,1-.51,1.35,1.73,1.73,0,0,1-1.49.71H378.52A1.72,1.72,0,0,1,377,60.9a2.28,2.28,0,0,1-.52-1.35V37.68a2.27,2.27,0,0,1,.52-1.34,1.72,1.72,0,0,1,1.49-.71h16.3V21.76H373.63v8.69a2.32,2.32,0,0,1-.53,1.35,1.75,1.75,0,0,1-1.47.7H359.77a1.71,1.71,0,0,1-1.49-.7,2.3,2.3,0,0,1-.52-1.35V7.94a2.27,2.27,0,0,1,.52-1.34,1.72,1.72,0,0,1,1.49-.71ZM390.48,65.46a1.74,1.74,0,0,1,1.46.71,2.25,2.25,0,0,1,.54,1.34V80.36a2.25,2.25,0,0,1-.54,1.34,1.74,1.74,0,0,1-1.46.71H378.61a1.74,1.74,0,0,1-1.46-.71,2.25,2.25,0,0,1-.54-1.34V67.51a2.25,2.25,0,0,1,.54-1.34,1.74,1.74,0,0,1,1.46-.71Z"/></g></g></svg>