<svg xmlns="http://www.w3.org/2000/svg" viewBox="0 0 436.37 91.23"><defs><style>.cls-1{fill:#c20005;stroke:#fff;stroke-miterlimit:10;}</style></defs><g id="レイヤー_2" data-name="レイヤー 2"><g id="レイヤー_1-2" data-name="レイヤー 1"><path class="cls-1" d="M75.3,90.73h-23a3.11,3.11,0,0,1-1.78-.64,2.15,2.15,0,0,1-.92-1.88V76.14a2.15,2.15,0,0,1,.92-1.87,3.11,3.11,0,0,1,1.78-.64h6V33.43H32.93L20.61,88.27a3.51,3.51,0,0,1-1,1.61,2.77,2.77,0,0,1-2,.85H2.65A1.75,1.75,0,0,1,1,89.88a2.22,2.22,0,0,1-.28-1.61L13.07,33.43H3.2a3.08,3.08,0,0,1-1.78-.64A2.16,2.16,0,0,1,.5,30.91V18.84A2.18,2.18,0,0,1,1.42,17a3.16,3.16,0,0,1,1.78-.64H14.05V3.25a3,3,0,0,1,.71-1.78,2.23,2.23,0,0,1,1.93-1H31.16a2.26,2.26,0,0,1,1.93,1,3.09,3.09,0,0,1,.7,1.78V16.32H75.3a3.5,3.5,0,0,1,1.87.67,2.1,2.1,0,0,1,1,1.85V88.21a2.09,2.09,0,0,1-1,1.85A3.42,3.42,0,0,1,75.3,90.73Z"/><path class="cls-1" d="M125.54,59.8H93.84A3.47,3.47,0,0,1,92,59.12a2.11,2.11,0,0,1-1-1.84V45.21a2.12,2.12,0,0,1,1-1.85,3.44,3.44,0,0,1,1.87-.67h82a3.13,3.13,0,0,1,1.78.64,2.16,2.16,0,0,1,.92,1.88V57.28a2.15,2.15,0,0,1-.92,1.87,3.15,3.15,0,0,1-1.78.65H145.47l-13,28.47c-.78,1.64-1.8,2.46-3.07,2.46H114.5a1.84,1.84,0,0,1-1.74-.9,1.67,1.67,0,0,1-.22-1.56Zm41.14-29.3H103a3.42,3.42,0,0,1-1.87-.67,2.1,2.1,0,0,1-1-1.85V15.91a2.1,2.1,0,0,1,1-1.85,3.5,3.5,0,0,1,1.87-.67h63.64a3.13,3.13,0,0,1,1.78.65,2.15,2.15,0,0,1,.92,1.87V28a2.16,2.16,0,0,1-.92,1.88A3.11,3.11,0,0,1,166.68,30.5Z"/><path class="cls-1" d="M261.11,90.73H189a3.13,3.13,0,0,1-1.78-.64,2.14,2.14,0,0,1-.91-1.88V76.14a2.14,2.14,0,0,1,.91-1.87,3.13,3.13,0,0,1,1.78-.64h55.06V30.5H189a3.13,3.13,0,0,1-1.78-.64,2.16,2.16,0,0,1-.91-1.88V15.91a2.14,2.14,0,0,1,.91-1.87,3.15,3.15,0,0,1,1.78-.65h45.13l2.94,6.33a4.78,4.78,0,0,0,1.38,1.64,3.46,3.46,0,0,0,2.24.82H264v66a2.11,2.11,0,0,1-1,1.85A3.44,3.44,0,0,1,261.11,90.73Zm-9.38-70.31h-9.39a3.44,3.44,0,0,1-2.23-.82A4.57,4.57,0,0,1,238.73,18L232.84,5.13a1.59,1.59,0,0,1-.12-1.52,1.36,1.36,0,0,1,1.47-.94h9.38a3.39,3.39,0,0,1,2.24.85,5.23,5.23,0,0,1,1.38,1.61L253.08,18a1.64,1.64,0,0,1,.12,1.52A1.37,1.37,0,0,1,251.73,20.42Zm18,0h-9.38a3.46,3.46,0,0,1-2.24-.82A4.78,4.78,0,0,1,256.75,18L250.87,5.13a1.59,1.59,0,0,1-.12-1.52,1.36,1.36,0,0,1,1.47-.94h9.38a3.37,3.37,0,0,1,2.23.85,5,5,0,0,1,1.38,1.61L271.1,18a1.59,1.59,0,0,1,.12,1.52A1.36,1.36,0,0,1,269.75,20.42Z"/><path class="cls-1" d="M280.77,53.94V13.63a3,3,0,0,1,.71-1.79,2.25,2.25,0,0,1,1.93-1H296a2.26,2.26,0,0,1,1.93,1,3.09,3.09,0,0,1,.7,1.79V53.94a2.81,2.81,0,0,1-.67,1.7,2.33,2.33,0,0,1-2,.88H283.41a2.37,2.37,0,0,1-2-.88A2.88,2.88,0,0,1,280.77,53.94Zm40,12.71a9.7,9.7,0,0,0,.61-2.05,17.66,17.66,0,0,0,.31-2.11l.06-.82V13.33a2.66,2.66,0,0,1,.67-1.61,2.32,2.32,0,0,1,1.9-.85h14.84a2.22,2.22,0,0,1,1.87.85,2.74,2.74,0,0,1,.65,1.61V61.67a15,15,0,0,1-1,5L330.56,88.27c-.74,1.64-1.76,2.46-3.07,2.46h-14.9a1.86,1.86,0,0,1-1.75-.9,1.66,1.66,0,0,1-.21-1.56Z"/><path class="cls-1" d="M357.08,41.93H433a3.44,3.44,0,0,1,1.87.67,2.11,2.11,0,0,1,1,1.85V56.52a2.11,2.11,0,0,1-1,1.84A3.47,3.47,0,0,1,433,59H357.08a3.13,3.13,0,0,1-1.78-.65,2.15,2.15,0,0,1-.92-1.87V44.45a2.16,2.16,0,0,1,.92-1.88A3.11,3.11,0,0,1,357.08,41.93Z"/></g></g></svg>