<svg xmlns="http://www.w3.org/2000/svg" viewBox="0 0 943.79 224.08"><defs><style>.cls-1,.cls-3{stroke:#fff;}.cls-1{stroke-miterlimit:10;}.cls-2{fill:#c20005;}.cls-3{fill:none;stroke-width:4px;}</style></defs><g id="レイヤー_2" data-name="レイヤー 2"><g id="レイヤー_1-2" data-name="レイヤー 1"><path class="cls-1" d="M127.85,212.3,5.07,222.06a3.3,3.3,0,0,1-2.52-.8c-.7-.62-.73-1.59-.09-2.92l9.48-19.57a7.23,7.23,0,0,1,3-3.16,9.07,9.07,0,0,1,3.53-1.29l93.75-7.46,33.88-69.93-93.75,7.46a3.29,3.29,0,0,1-2.52-.8c-.71-.62-.74-1.59-.09-2.92l9.48-19.57a7.14,7.14,0,0,1,3-3.17,9.07,9.07,0,0,1,3.53-1.29L188.6,86.88a3.64,3.64,0,0,1,2.66.84q1.19.94.27,2.85l-56.8,117.25a7.15,7.15,0,0,1-3.17,3.13A10,10,0,0,1,127.85,212.3Z"/><path class="cls-1" d="M281.87,200,159.1,209.81a3.25,3.25,0,0,1-2.52-.81q-1.07-.92-.09-2.91L166,186.51a7.12,7.12,0,0,1,3-3.16,9,9,0,0,1,3.53-1.29l93.75-7.46,33.87-69.93-93.74,7.46a3.31,3.31,0,0,1-2.53-.8c-.7-.61-.73-1.59-.09-2.92l9.48-19.57a7.31,7.31,0,0,1,3-3.17,9.17,9.17,0,0,1,3.54-1.28l122.77-9.77a3.62,3.62,0,0,1,2.65.84q1.2,1,.27,2.85L288.76,195.56a7.18,7.18,0,0,1-3.18,3.13A9.94,9.94,0,0,1,281.87,200Z"/><path class="cls-1" d="M470,95.91A9.88,9.88,0,0,1,467,99.35a24.9,24.9,0,0,1-4,2.51l-95.81,42.8-11.05,22.8,84.77-6.75a3.32,3.32,0,0,1,2.52.81c.71.61.74,1.58.1,2.91L434,184a7.23,7.23,0,0,1-3,3.16,9.05,9.05,0,0,1-3.54,1.29l-113.79,9a3.81,3.81,0,0,1-2.68-.79c-.81-.61-.89-1.57-.25-2.9l28.45-58.72q1.51-3.14,7.1-6l26.38-11.78,11-53.13c.52-2.59,1.94-4,4.23-4.17L414.14,58a4,4,0,0,1,3.33,1.1,2.43,2.43,0,0,1,.9,2.4l-8.1,39.1,48-21.45L479,77.47Zm1.33-20.57-16,1.27a3.63,3.63,0,0,1-3.17-1,3.58,3.58,0,0,1-1.06-2.47l.06-20c-.18-.6.15-1.41,1-2.46a4.46,4.46,0,0,1,3.24-1.72l16-1.27a3.49,3.49,0,0,1,3.14,1.08,3.92,3.92,0,0,1,1.09,2.42l-.06,20c.18.59-.15,1.41-1,2.45A4.48,4.48,0,0,1,471.37,75.34ZM501,73l-16,1.27a3.62,3.62,0,0,1-3.17-1,3.58,3.58,0,0,1-1.06-2.47l.06-20c-.18-.6.15-1.41,1-2.46a4.48,4.48,0,0,1,3.24-1.72l16-1.27a3.49,3.49,0,0,1,3.14,1.08,3.94,3.94,0,0,1,1.09,2.42l-.06,20c.18.59-.15,1.41-1,2.45A4.48,4.48,0,0,1,501,73Z"/><path class="cls-1" d="M546.2,179,507,182.13a3.26,3.26,0,0,1-2.52-.81q-1.06-.91-.09-2.91l9.48-19.57a7.14,7.14,0,0,1,3-3.17,9,9,0,0,1,3.53-1.29l10.23-.81,31.57-65.18-8.14.65L490,179.64a13.05,13.05,0,0,1-3,2.76,8.53,8.53,0,0,1-4.12,1.65l-25.36,2c-1.4.11-2.13-.28-2.21-1.15a3.79,3.79,0,0,1,.8-2.58l64.17-90.61-16.81,1.34a3.25,3.25,0,0,1-2.52-.81c-.71-.61-.74-1.58-.1-2.91l9.49-19.58a7.15,7.15,0,0,1,3-3.16,9.11,9.11,0,0,1,3.54-1.29l18.48-1.47L545.6,42.66a10.15,10.15,0,0,1,2.61-3,7.07,7.07,0,0,1,4-1.83l24.64-2c1.39-.11,2.24.33,2.53,1.31a3.76,3.76,0,0,1-.2,2.8L569,61.18l35.71-2.84a3.62,3.62,0,0,1,2.65.84c.8.63.89,1.59.27,2.85l-54.49,112.5a7.15,7.15,0,0,1-3.17,3.13A10,10,0,0,1,546.2,179ZM640.71,69.9l-21,79.32a7,7,0,0,1-1.84,2.66,5.46,5.46,0,0,1-3.53,1.6l-25.37,2a2.73,2.73,0,0,1-2.78-1.1,2.86,2.86,0,0,1-.41-2.48l21-79.32A5.86,5.86,0,0,1,608.57,70a5.67,5.67,0,0,1,3.59-1.61l25.26-2a2.74,2.74,0,0,1,2.78,1.1A3.16,3.16,0,0,1,640.71,69.9ZM633.2,59.08l-16,1.27a3.63,3.63,0,0,1-3.17-1,3.55,3.55,0,0,1-1-2.47l0-20c-.18-.59.15-1.41,1-2.45a4.45,4.45,0,0,1,3.24-1.72l16-1.27a3.47,3.47,0,0,1,3.14,1.07,4,4,0,0,1,1.08,2.43l-.06,20c.18.59-.14,1.41-1,2.45A4.45,4.45,0,0,1,633.2,59.08ZM666,56.47l-16,1.27a3.63,3.63,0,0,1-3.16-1,3.56,3.56,0,0,1-1.06-2.48l.05-20c-.18-.59.15-1.41,1-2.45a4.45,4.45,0,0,1,3.24-1.72l16-1.27a3.52,3.52,0,0,1,3.14,1.07,4,4,0,0,1,1.08,2.43l0,20c.17.59-.16,1.41-1,2.45A4.45,4.45,0,0,1,666,56.47Z"/><path class="cls-1" d="M741.73,95.85q4.49-.36,1.45,5.91l-17.58,36.3,19.73-1.57,15.19-31.36a10.24,10.24,0,0,1,2.6-3,7.13,7.13,0,0,1,4-1.83l21.51-1.71c1.39-.11,2.23.32,2.53,1.3a3.78,3.78,0,0,1-.21,2.81l-26.65,55a7.15,7.15,0,0,1-3,3.16,9.11,9.11,0,0,1-3.54,1.29l-74.64,5.94a3.85,3.85,0,0,1-2.68-.79c-.81-.61-.89-1.58-.25-2.9l18.64-38.49-18.27,1.46-27.35,39.26a13.05,13.05,0,0,1-3,2.76,8.49,8.49,0,0,1-4.11,1.65l-25.37,2c-1.4.11-2.13-.28-2.2-1.15a3.73,3.73,0,0,1,.79-2.58L717.43,28.54a13,13,0,0,1,3-2.75,8.25,8.25,0,0,1,4.17-1.66l25.26-2c1.32-.11,2.06.28,2.21,1.15a3.36,3.36,0,0,1-.7,2.57L700.18,99.15Z"/><path class="cls-1" d="M844,121c1.32-.1,2.14.28,2.46,1.13a3.12,3.12,0,0,1-.11,2.52l-12.11,25a8.74,8.74,0,0,1-2.41,2.71,6.82,6.82,0,0,1-3.8,1.62l-25.37,2c-1.32.11-2.15-.27-2.46-1.13a3,3,0,0,1,.11-2.52l12.11-25a8.71,8.71,0,0,1,2.41-2.7,6.91,6.91,0,0,1,3.8-1.63ZM939.11,2c1.32-.11,2.14.27,2.47,1.13a3.12,3.12,0,0,1-.12,2.52L902.34,86.43a8.65,8.65,0,0,1-2.42,2.7,6.84,6.84,0,0,1-3.8,1.63l-9.39.75-25.48,2-7.59,15.67a8.74,8.74,0,0,1-2.36,2.7,6.76,6.76,0,0,1-3.85,1.63l-25.37,2c-1.4.11-2.24-.26-2.52-1.12a3.23,3.23,0,0,1,.17-2.53l20.62-42.56a8.74,8.74,0,0,1,2.36-2.7A6.76,6.76,0,0,1,846.56,65l34.87-2.78,13.07-27-45.31,3.6L841,55.77a8.61,8.61,0,0,1-2.41,2.71,6.91,6.91,0,0,1-3.8,1.63l-25.37,2c-1.39.11-2.23-.26-2.52-1.12a3.28,3.28,0,0,1,.17-2.53l21.22-43.8a9,9,0,0,1,2.36-2.7,6.83,6.83,0,0,1,3.85-1.63Z"/><path class="cls-2" d="M127.85,212.3,5.07,222.06a3.3,3.3,0,0,1-2.52-.8c-.7-.62-.73-1.59-.09-2.92l9.48-19.57a7.23,7.23,0,0,1,3-3.16,9.07,9.07,0,0,1,3.53-1.29l93.75-7.46,33.88-69.93-93.75,7.46a3.29,3.29,0,0,1-2.52-.8c-.71-.62-.74-1.59-.09-2.92l9.48-19.57a7.14,7.14,0,0,1,3-3.17,9.07,9.07,0,0,1,3.53-1.29L188.6,86.88a3.64,3.64,0,0,1,2.66.84q1.19.94.27,2.85l-56.8,117.25a7.15,7.15,0,0,1-3.17,3.13A10,10,0,0,1,127.85,212.3Z"/><path class="cls-2" d="M281.87,200,159.1,209.81a3.25,3.25,0,0,1-2.52-.81q-1.07-.92-.09-2.91L166,186.51a7.12,7.12,0,0,1,3-3.16,9,9,0,0,1,3.53-1.29l93.75-7.46,33.87-69.93-93.74,7.46a3.31,3.31,0,0,1-2.53-.8c-.7-.61-.73-1.59-.09-2.92l9.48-19.57a7.31,7.31,0,0,1,3-3.17,9.17,9.17,0,0,1,3.54-1.28l122.77-9.77a3.62,3.62,0,0,1,2.65.84q1.2,1,.27,2.85L288.76,195.56a7.18,7.18,0,0,1-3.18,3.13A9.94,9.94,0,0,1,281.87,200Z"/><path class="cls-2" d="M470,95.91A9.88,9.88,0,0,1,467,99.35a24.9,24.9,0,0,1-4,2.51l-95.81,42.8-11.05,22.8,84.77-6.75a3.32,3.32,0,0,1,2.52.81c.71.61.74,1.58.1,2.91L434,184a7.23,7.23,0,0,1-3,3.16,9.05,9.05,0,0,1-3.54,1.29l-113.79,9a3.81,3.81,0,0,1-2.68-.79c-.81-.61-.89-1.57-.25-2.9l28.45-58.72q1.51-3.14,7.1-6l26.38-11.78,11-53.13c.52-2.59,1.94-4,4.23-4.17L414.14,58a4,4,0,0,1,3.33,1.1,2.43,2.43,0,0,1,.9,2.4l-8.1,39.1,48-21.45L479,77.47Zm1.33-20.57-16,1.27a3.63,3.63,0,0,1-3.17-1,3.58,3.58,0,0,1-1.06-2.47l.06-20c-.18-.6.15-1.41,1-2.46a4.46,4.46,0,0,1,3.24-1.72l16-1.27a3.49,3.49,0,0,1,3.14,1.08,3.92,3.92,0,0,1,1.09,2.42l-.06,20c.18.59-.15,1.41-1,2.45A4.48,4.48,0,0,1,471.37,75.34ZM501,73l-16,1.27a3.62,3.62,0,0,1-3.17-1,3.58,3.58,0,0,1-1.06-2.47l.06-20c-.18-.6.15-1.41,1-2.46a4.48,4.48,0,0,1,3.24-1.72l16-1.27a3.49,3.49,0,0,1,3.14,1.08,3.94,3.94,0,0,1,1.09,2.42l-.06,20c.18.59-.15,1.41-1,2.45A4.48,4.48,0,0,1,501,73Z"/><path class="cls-2" d="M546.2,179,507,182.13a3.26,3.26,0,0,1-2.52-.81q-1.06-.91-.09-2.91l9.48-19.57a7.14,7.14,0,0,1,3-3.17,9,9,0,0,1,3.53-1.29l10.23-.81,31.57-65.18-8.14.65L490,179.64a13.05,13.05,0,0,1-3,2.76,8.53,8.53,0,0,1-4.12,1.65l-25.36,2c-1.4.11-2.13-.28-2.21-1.15a3.79,3.79,0,0,1,.8-2.58l64.17-90.61-16.81,1.34a3.25,3.25,0,0,1-2.52-.81c-.71-.61-.74-1.58-.1-2.91l9.49-19.58a7.15,7.15,0,0,1,3-3.16,9.11,9.11,0,0,1,3.54-1.29l18.48-1.47L545.6,42.66a10.15,10.15,0,0,1,2.61-3,7.07,7.07,0,0,1,4-1.83l24.64-2c1.39-.11,2.24.33,2.53,1.31a3.76,3.76,0,0,1-.2,2.8L569,61.18l35.71-2.84a3.62,3.62,0,0,1,2.65.84c.8.63.89,1.59.27,2.85l-54.49,112.5a7.15,7.15,0,0,1-3.17,3.13A10,10,0,0,1,546.2,179ZM640.71,69.9l-21,79.32a7,7,0,0,1-1.84,2.66,5.46,5.46,0,0,1-3.53,1.6l-25.37,2a2.73,2.73,0,0,1-2.78-1.1,2.86,2.86,0,0,1-.41-2.48l21-79.32A5.86,5.86,0,0,1,608.57,70a5.67,5.67,0,0,1,3.59-1.61l25.26-2a2.74,2.74,0,0,1,2.78,1.1A3.16,3.16,0,0,1,640.71,69.9ZM633.2,59.08l-16,1.27a3.63,3.63,0,0,1-3.17-1,3.55,3.55,0,0,1-1-2.47l0-20c-.18-.59.15-1.41,1-2.45a4.45,4.45,0,0,1,3.24-1.72l16-1.27a3.47,3.47,0,0,1,3.14,1.07,4,4,0,0,1,1.08,2.43l-.06,20c.18.59-.14,1.41-1,2.45A4.45,4.45,0,0,1,633.2,59.08ZM666,56.47l-16,1.27a3.63,3.63,0,0,1-3.16-1,3.56,3.56,0,0,1-1.06-2.48l.05-20c-.18-.59.15-1.41,1-2.45a4.45,4.45,0,0,1,3.24-1.72l16-1.27a3.52,3.52,0,0,1,3.14,1.07,4,4,0,0,1,1.08,2.43l0,20c.17.59-.16,1.41-1,2.45A4.45,4.45,0,0,1,666,56.47Z"/><path class="cls-2" d="M741.73,95.85q4.49-.36,1.45,5.91l-17.58,36.3,19.73-1.57,15.19-31.36a10.24,10.24,0,0,1,2.6-3,7.13,7.13,0,0,1,4-1.83l21.51-1.71c1.39-.11,2.23.32,2.53,1.3a3.78,3.78,0,0,1-.21,2.81l-26.65,55a7.15,7.15,0,0,1-3,3.16,9.11,9.11,0,0,1-3.54,1.29l-74.64,5.94a3.85,3.85,0,0,1-2.68-.79c-.81-.61-.89-1.58-.25-2.9l18.64-38.49-18.27,1.46-27.35,39.26a13.05,13.05,0,0,1-3,2.76,8.49,8.49,0,0,1-4.11,1.65l-25.37,2c-1.4.11-2.13-.28-2.2-1.15a3.73,3.73,0,0,1,.79-2.58L717.43,28.54a13,13,0,0,1,3-2.75,8.25,8.25,0,0,1,4.17-1.66l25.26-2c1.32-.11,2.06.28,2.21,1.15a3.36,3.36,0,0,1-.7,2.57L700.18,99.15Z"/><path class="cls-2" d="M844,121c1.32-.1,2.14.28,2.46,1.13a3.12,3.12,0,0,1-.11,2.52l-12.11,25a8.74,8.74,0,0,1-2.41,2.71,6.82,6.82,0,0,1-3.8,1.62l-25.37,2c-1.32.11-2.15-.27-2.46-1.13a3,3,0,0,1,.11-2.52l12.11-25a8.71,8.71,0,0,1,2.41-2.7,6.91,6.91,0,0,1,3.8-1.63ZM939.11,2c1.32-.11,2.14.27,2.47,1.13a3.12,3.12,0,0,1-.12,2.52L902.34,86.43a8.65,8.65,0,0,1-2.42,2.7,6.84,6.84,0,0,1-3.8,1.63l-9.39.75-25.48,2-7.59,15.67a8.74,8.74,0,0,1-2.36,2.7,6.76,6.76,0,0,1-3.85,1.63l-25.37,2c-1.4.11-2.24-.26-2.52-1.12a3.23,3.23,0,0,1,.17-2.53l20.62-42.56a8.74,8.74,0,0,1,2.36-2.7A6.76,6.76,0,0,1,846.56,65l34.87-2.78,13.07-27-45.31,3.6L841,55.77a8.61,8.61,0,0,1-2.41,2.71,6.91,6.91,0,0,1-3.8,1.63l-25.37,2c-1.39.11-2.23-.26-2.52-1.12a3.28,3.28,0,0,1,.17-2.53l21.22-43.8a9,9,0,0,1,2.36-2.7,6.83,6.83,0,0,1,3.85-1.63Z"/><path class="cls-3" d="M127.85,212.3,5.07,222.06a3.3,3.3,0,0,1-2.52-.8c-.7-.62-.73-1.59-.09-2.92l9.48-19.57a7.23,7.23,0,0,1,3-3.16,9.07,9.07,0,0,1,3.53-1.29l93.75-7.46,33.88-69.93-93.75,7.46a3.29,3.29,0,0,1-2.52-.8c-.71-.62-.74-1.59-.09-2.92l9.48-19.57a7.14,7.14,0,0,1,3-3.17,9.07,9.07,0,0,1,3.53-1.29L188.6,86.88a3.64,3.64,0,0,1,2.66.84q1.19.94.27,2.85l-56.8,117.25a7.15,7.15,0,0,1-3.17,3.13A10,10,0,0,1,127.85,212.3Z"/><path class="cls-3" d="M281.87,200,159.1,209.81a3.25,3.25,0,0,1-2.52-.81q-1.07-.92-.09-2.91L166,186.51a7.12,7.12,0,0,1,3-3.16,9,9,0,0,1,3.53-1.29l93.75-7.46,33.87-69.93-93.74,7.46a3.31,3.31,0,0,1-2.53-.8c-.7-.61-.73-1.59-.09-2.92l9.48-19.57a7.31,7.31,0,0,1,3-3.17,9.17,9.17,0,0,1,3.54-1.28l122.77-9.77a3.62,3.62,0,0,1,2.65.84q1.2,1,.27,2.85L288.76,195.56a7.18,7.18,0,0,1-3.18,3.13A9.94,9.94,0,0,1,281.87,200Z"/><path class="cls-3" d="M470,95.91A9.88,9.88,0,0,1,467,99.35a24.9,24.9,0,0,1-4,2.51l-95.81,42.8-11.05,22.8,84.77-6.75a3.32,3.32,0,0,1,2.52.81c.71.61.74,1.58.1,2.91L434,184a7.23,7.23,0,0,1-3,3.16,9.05,9.05,0,0,1-3.54,1.29l-113.79,9a3.81,3.81,0,0,1-2.68-.79c-.81-.61-.89-1.57-.25-2.9l28.45-58.72q1.51-3.14,7.1-6l26.38-11.78,11-53.13c.52-2.59,1.94-4,4.23-4.17L414.14,58a4,4,0,0,1,3.33,1.1,2.43,2.43,0,0,1,.9,2.4l-8.1,39.1,48-21.45L479,77.47Zm1.33-20.57-16,1.27a3.63,3.63,0,0,1-3.17-1,3.58,3.58,0,0,1-1.06-2.47l.06-20c-.18-.6.15-1.41,1-2.46a4.46,4.46,0,0,1,3.24-1.72l16-1.27a3.49,3.49,0,0,1,3.14,1.08,3.92,3.92,0,0,1,1.09,2.42l-.06,20c.18.59-.15,1.41-1,2.45A4.48,4.48,0,0,1,471.37,75.34ZM501,73l-16,1.27a3.62,3.62,0,0,1-3.17-1,3.58,3.58,0,0,1-1.06-2.47l.06-20c-.18-.6.15-1.41,1-2.46a4.48,4.48,0,0,1,3.24-1.72l16-1.27a3.49,3.49,0,0,1,3.14,1.08,3.94,3.94,0,0,1,1.09,2.42l-.06,20c.18.59-.15,1.41-1,2.45A4.48,4.48,0,0,1,501,73Z"/><path class="cls-3" d="M546.2,179,507,182.13a3.26,3.26,0,0,1-2.52-.81q-1.06-.91-.09-2.91l9.48-19.57a7.14,7.14,0,0,1,3-3.17,9,9,0,0,1,3.53-1.29l10.23-.81,31.57-65.18-8.14.65L490,179.64a13.05,13.05,0,0,1-3,2.76,8.53,8.53,0,0,1-4.12,1.65l-25.36,2c-1.4.11-2.13-.28-2.21-1.15a3.79,3.79,0,0,1,.8-2.58l64.17-90.61-16.81,1.34a3.25,3.25,0,0,1-2.52-.81c-.71-.61-.74-1.58-.1-2.91l9.49-19.58a7.15,7.15,0,0,1,3-3.16,9.11,9.11,0,0,1,3.54-1.29l18.48-1.47L545.6,42.66a10.15,10.15,0,0,1,2.61-3,7.07,7.07,0,0,1,4-1.83l24.64-2c1.39-.11,2.24.33,2.53,1.31a3.76,3.76,0,0,1-.2,2.8L569,61.18l35.71-2.84a3.62,3.62,0,0,1,2.65.84c.8.63.89,1.59.27,2.85l-54.49,112.5a7.15,7.15,0,0,1-3.17,3.13A10,10,0,0,1,546.2,179ZM640.71,69.9l-21,79.32a7,7,0,0,1-1.84,2.66,5.46,5.46,0,0,1-3.53,1.6l-25.37,2a2.73,2.73,0,0,1-2.78-1.1,2.86,2.86,0,0,1-.41-2.48l21-79.32A5.86,5.86,0,0,1,608.57,70a5.67,5.67,0,0,1,3.59-1.61l25.26-2a2.74,2.74,0,0,1,2.78,1.1A3.16,3.16,0,0,1,640.71,69.9ZM633.2,59.08l-16,1.27a3.63,3.63,0,0,1-3.17-1,3.55,3.55,0,0,1-1-2.47l0-20c-.18-.59.15-1.41,1-2.45a4.45,4.45,0,0,1,3.24-1.72l16-1.27a3.47,3.47,0,0,1,3.14,1.07,4,4,0,0,1,1.08,2.43l-.06,20c.18.59-.14,1.41-1,2.45A4.45,4.45,0,0,1,633.2,59.08ZM666,56.47l-16,1.27a3.63,3.63,0,0,1-3.16-1,3.56,3.56,0,0,1-1.06-2.48l.05-20c-.18-.59.15-1.41,1-2.45a4.45,4.45,0,0,1,3.24-1.72l16-1.27a3.52,3.52,0,0,1,3.14,1.07,4,4,0,0,1,1.08,2.43l0,20c.17.59-.16,1.41-1,2.45A4.45,4.45,0,0,1,666,56.47Z"/><path class="cls-3" d="M741.73,95.85q4.49-.36,1.45,5.91l-17.58,36.3,19.73-1.57,15.19-31.36a10.24,10.24,0,0,1,2.6-3,7.13,7.13,0,0,1,4-1.83l21.51-1.71c1.39-.11,2.23.32,2.53,1.3a3.78,3.78,0,0,1-.21,2.81l-26.65,55a7.15,7.15,0,0,1-3,3.16,9.11,9.11,0,0,1-3.54,1.29l-74.64,5.94a3.85,3.85,0,0,1-2.68-.79c-.81-.61-.89-1.58-.25-2.9l18.64-38.49-18.27,1.46-27.35,39.26a13.05,13.05,0,0,1-3,2.76,8.49,8.49,0,0,1-4.11,1.65l-25.37,2c-1.4.11-2.13-.28-2.2-1.15a3.73,3.73,0,0,1,.79-2.58L717.43,28.54a13,13,0,0,1,3-2.75,8.25,8.25,0,0,1,4.17-1.66l25.26-2c1.32-.11,2.06.28,2.21,1.15a3.36,3.36,0,0,1-.7,2.57L700.18,99.15Z"/><path class="cls-3" d="M844,121c1.32-.1,2.14.28,2.46,1.13a3.12,3.12,0,0,1-.11,2.52l-12.11,25a8.74,8.74,0,0,1-2.41,2.71,6.82,6.82,0,0,1-3.8,1.62l-25.37,2c-1.32.11-2.15-.27-2.46-1.13a3,3,0,0,1,.11-2.52l12.11-25a8.71,8.71,0,0,1,2.41-2.7,6.91,6.91,0,0,1,3.8-1.63ZM939.11,2c1.32-.11,2.14.27,2.47,1.13a3.12,3.12,0,0,1-.12,2.52L902.34,86.43a8.65,8.65,0,0,1-2.42,2.7,6.84,6.84,0,0,1-3.8,1.63l-9.39.75-25.48,2-7.59,15.67a8.74,8.74,0,0,1-2.36,2.7,6.76,6.76,0,0,1-3.85,1.63l-25.37,2c-1.4.11-2.24-.26-2.52-1.12a3.23,3.23,0,0,1,.17-2.53l20.62-42.56a8.74,8.74,0,0,1,2.36-2.7A6.76,6.76,0,0,1,846.56,65l34.87-2.78,13.07-27-45.31,3.6L841,55.77a8.61,8.61,0,0,1-2.41,2.71,6.91,6.91,0,0,1-3.8,1.63l-25.37,2c-1.39.11-2.23-.26-2.52-1.12a3.28,3.28,0,0,1,.17-2.53l21.22-43.8a9,9,0,0,1,2.36-2.7,6.83,6.83,0,0,1,3.85-1.63Z"/></g></g></svg>