<svg xmlns="http://www.w3.org/2000/svg" viewBox="0 0 862.5 214"><defs><style>.cls-1,.cls-3{fill:#fff;}.cls-2,.cls-4{fill:#c20005;}.cls-2,.cls-5{stroke:#c20005;}.cls-2,.cls-3{stroke-width:3px;}.cls-3,.cls-4{stroke:#fff;}.cls-4{stroke-miterlimit:10;}.cls-5{fill:none;}</style></defs><g id="レイヤー_2" data-name="レイヤー 2"><g id="レイヤー_1-2" data-name="レイヤー 1"><rect class="cls-1" y="1.5" width="861" height="211"/><rect class="cls-2" x="664" y="1.5" width="197" height="211"/><polygon class="cls-3" points="762.26 91.2 789.28 106.39 762.62 122.19 735.95 138 735.59 107 735.24 76 762.26 91.2"/><path class="cls-4" d="M192.77,83.27h-21V96.16h34.78a1.73,1.73,0,0,1,1.45.71,2.29,2.29,0,0,1,.53,1.34v40.38a2.29,2.29,0,0,1-.53,1.34,1.71,1.71,0,0,1-1.45.71H158.24a2.25,2.25,0,0,1-1.34-.54,1.74,1.74,0,0,1-.7-1.46V121.16a2.32,2.32,0,0,1,.51-1.34,1.69,1.69,0,0,1,1.48-.71H170a1.67,1.67,0,0,1,1.47.71,2.32,2.32,0,0,1,.51,1.34v3.61h20.83V112H158a1.69,1.69,0,0,1-1.47-.71A2.32,2.32,0,0,1,156,110V69.45a2.32,2.32,0,0,1,.51-1.34A1.69,1.69,0,0,1,158,67.4h48.54a1.73,1.73,0,0,1,1.45.71,2.29,2.29,0,0,1,.53,1.34V87.08a2.29,2.29,0,0,1-.53,1.34,1.73,1.73,0,0,1-1.45.71H194.76a1.71,1.71,0,0,1-1.48-.71,2.32,2.32,0,0,1-.51-1.34Z"/><path class="cls-4" d="M234.31,124.77H269a2.25,2.25,0,0,1,1.33.52,1.71,1.71,0,0,1,.7,1.48v11.87a1.72,1.72,0,0,1-.7,1.46,2.22,2.22,0,0,1-1.33.54H220.55a1.69,1.69,0,0,1-1.48-.71,2.31,2.31,0,0,1-.5-1.34V69.35a2.31,2.31,0,0,1,.5-1.34,1.71,1.71,0,0,1,1.48-.71H269a2.3,2.3,0,0,1,1.33.51,1.74,1.74,0,0,1,.7,1.49V81.17a1.72,1.72,0,0,1-.7,1.46,2.22,2.22,0,0,1-1.33.54H234.31V96H261a2.22,2.22,0,0,1,1.28.52A1.71,1.71,0,0,1,263,98v11.86a1.75,1.75,0,0,1-.7,1.47,2.24,2.24,0,0,1-1.28.53H234.31Z"/><path class="cls-4" d="M314.09,69.45l18.11,69.14a2.07,2.07,0,0,1-.17,1.34,1.25,1.25,0,0,1-1.28.71H318.54a2.19,2.19,0,0,1-1.62-.71,3.42,3.42,0,0,1-.9-1.34L314,131H297l-2,7.57a3.54,3.54,0,0,1-.87,1.34,2.17,2.17,0,0,1-1.65.71h-12.2a1.25,1.25,0,0,1-1.26-.71,2,2,0,0,1-.2-1.34l18-69.14a3,3,0,0,1,.85-1.34,2.28,2.28,0,0,1,1.67-.71h12.16a2.29,2.29,0,0,1,1.67.71A3,3,0,0,1,314.09,69.45Zm-4.22,45.7-4.36-16.7-4.36,16.7Z"/><path class="cls-4" d="M339.91,69.35a3.35,3.35,0,0,1,.2-.58,3.49,3.49,0,0,1,.65-.91,1.53,1.53,0,0,1,1.14-.56h48.48a1.74,1.74,0,0,1,1.46.71,2.29,2.29,0,0,1,.53,1.34V111a2.3,2.3,0,0,1-.53,1.35,1.73,1.73,0,0,1-1.46.7h-8l11.09,25.59a1.43,1.43,0,0,1,.12,1.27,1.07,1.07,0,0,1-1.18.78H380.21a2.6,2.6,0,0,1-1.74-.71,4.29,4.29,0,0,1-1.12-1.34L366.21,113H355.66v25.59a2.25,2.25,0,0,1-.54,1.34,1.7,1.7,0,0,1-1.45.71H341.9a1.69,1.69,0,0,1-1.48-.71,2.32,2.32,0,0,1-.51-1.34Zm36.72,13.82h-21v14h21Z"/><path class="cls-4" d="M418.93,83.17v41.6h21v-13a2.35,2.35,0,0,1,.51-1.35,1.71,1.71,0,0,1,1.47-.71H453.7a1.74,1.74,0,0,1,1.46.71,2.32,2.32,0,0,1,.53,1.35v26.85a2.29,2.29,0,0,1-.53,1.34,1.71,1.71,0,0,1-1.46.71H405.17a1.69,1.69,0,0,1-1.48-.71,2.31,2.31,0,0,1-.5-1.34V69.35a2.31,2.31,0,0,1,.5-1.34,1.71,1.71,0,0,1,1.48-.71H453.7a1.74,1.74,0,0,1,1.46.71,2.29,2.29,0,0,1,.53,1.34V91.86a2.32,2.32,0,0,1-.53,1.35,1.73,1.73,0,0,1-1.46.7H441.93a1.7,1.7,0,0,1-1.47-.7,2.35,2.35,0,0,1-.51-1.35V83.17Z"/><path class="cls-4" d="M518.3,69.35v69.24a2.32,2.32,0,0,1-.51,1.34,1.69,1.69,0,0,1-1.48.71H504.54a1.7,1.7,0,0,1-1.45-.71,2.25,2.25,0,0,1-.54-1.34V110.81H481.49v27.78a2.32,2.32,0,0,1-.51,1.34,1.7,1.7,0,0,1-1.48.71H467.73a1.7,1.7,0,0,1-1.45-.71,2.25,2.25,0,0,1-.54-1.34V69.35A2.22,2.22,0,0,1,466.3,68a1.79,1.79,0,0,1,1.48-.71H479.5A1.73,1.73,0,0,1,481,68a2.32,2.32,0,0,1,.51,1.34V94.94h21.06V69.35a2.22,2.22,0,0,1,.56-1.34,1.8,1.8,0,0,1,1.48-.71h11.72a1.71,1.71,0,0,1,1.48.71A2.32,2.32,0,0,1,518.3,69.35Z"/><path class="cls-5" d="M192.77,83.27h-21V96.16h34.78a1.73,1.73,0,0,1,1.45.71,2.29,2.29,0,0,1,.53,1.34v40.38a2.29,2.29,0,0,1-.53,1.34,1.71,1.71,0,0,1-1.45.71H158.24a2.25,2.25,0,0,1-1.34-.54,1.74,1.74,0,0,1-.7-1.46V121.16a2.32,2.32,0,0,1,.51-1.34,1.69,1.69,0,0,1,1.48-.71H170a1.67,1.67,0,0,1,1.47.71,2.32,2.32,0,0,1,.51,1.34v3.61h20.83V112H158a1.69,1.69,0,0,1-1.47-.71A2.32,2.32,0,0,1,156,110V69.45a2.32,2.32,0,0,1,.51-1.34A1.69,1.69,0,0,1,158,67.4h48.54a1.73,1.73,0,0,1,1.45.71,2.29,2.29,0,0,1,.53,1.34V87.08a2.29,2.29,0,0,1-.53,1.34,1.73,1.73,0,0,1-1.45.71H194.76a1.71,1.71,0,0,1-1.48-.71,2.32,2.32,0,0,1-.51-1.34Z"/><path class="cls-5" d="M234.31,124.77H269a2.25,2.25,0,0,1,1.33.52,1.71,1.71,0,0,1,.7,1.48v11.87a1.72,1.72,0,0,1-.7,1.46,2.22,2.22,0,0,1-1.33.54H220.55a1.69,1.69,0,0,1-1.48-.71,2.31,2.31,0,0,1-.5-1.34V69.35a2.31,2.31,0,0,1,.5-1.34,1.71,1.71,0,0,1,1.48-.71H269a2.3,2.3,0,0,1,1.33.51,1.74,1.74,0,0,1,.7,1.49V81.17a1.72,1.72,0,0,1-.7,1.46,2.22,2.22,0,0,1-1.33.54H234.31V96H261a2.22,2.22,0,0,1,1.28.52A1.71,1.71,0,0,1,263,98v11.86a1.75,1.75,0,0,1-.7,1.47,2.24,2.24,0,0,1-1.28.53H234.31Z"/><path class="cls-5" d="M314.09,69.45l18.11,69.14a2.07,2.07,0,0,1-.17,1.34,1.25,1.25,0,0,1-1.28.71H318.54a2.19,2.19,0,0,1-1.62-.71,3.42,3.42,0,0,1-.9-1.34L314,131H297l-2,7.57a3.54,3.54,0,0,1-.87,1.34,2.17,2.17,0,0,1-1.65.71h-12.2a1.25,1.25,0,0,1-1.26-.71,2,2,0,0,1-.2-1.34l18-69.14a3,3,0,0,1,.85-1.34,2.28,2.28,0,0,1,1.67-.71h12.16a2.29,2.29,0,0,1,1.67.71A3,3,0,0,1,314.09,69.45Zm-4.22,45.7-4.36-16.7-4.36,16.7Z"/><path class="cls-5" d="M339.91,69.35a3.35,3.35,0,0,1,.2-.58,3.49,3.49,0,0,1,.65-.91,1.53,1.53,0,0,1,1.14-.56h48.48a1.74,1.74,0,0,1,1.46.71,2.29,2.29,0,0,1,.53,1.34V111a2.3,2.3,0,0,1-.53,1.35,1.73,1.73,0,0,1-1.46.7h-8l11.09,25.59a1.43,1.43,0,0,1,.12,1.27,1.07,1.07,0,0,1-1.18.78H380.21a2.6,2.6,0,0,1-1.74-.71,4.29,4.29,0,0,1-1.12-1.34L366.21,113H355.66v25.59a2.25,2.25,0,0,1-.54,1.34,1.7,1.7,0,0,1-1.45.71H341.9a1.69,1.69,0,0,1-1.48-.71,2.32,2.32,0,0,1-.51-1.34Zm36.72,13.82h-21v14h21Z"/><path class="cls-5" d="M418.93,83.17v41.6h21v-13a2.35,2.35,0,0,1,.51-1.35,1.71,1.71,0,0,1,1.47-.71H453.7a1.74,1.74,0,0,1,1.46.71,2.32,2.32,0,0,1,.53,1.35v26.85a2.29,2.29,0,0,1-.53,1.34,1.71,1.71,0,0,1-1.46.71H405.17a1.69,1.69,0,0,1-1.48-.71,2.31,2.31,0,0,1-.5-1.34V69.35a2.31,2.31,0,0,1,.5-1.34,1.71,1.71,0,0,1,1.48-.71H453.7a1.74,1.74,0,0,1,1.46.71,2.29,2.29,0,0,1,.53,1.34V91.86a2.32,2.32,0,0,1-.53,1.35,1.73,1.73,0,0,1-1.46.7H441.93a1.7,1.7,0,0,1-1.47-.7,2.35,2.35,0,0,1-.51-1.35V83.17Z"/><path class="cls-5" d="M518.3,69.35v69.24a2.32,2.32,0,0,1-.51,1.34,1.69,1.69,0,0,1-1.48.71H504.54a1.7,1.7,0,0,1-1.45-.71,2.25,2.25,0,0,1-.54-1.34V110.81H481.49v27.78a2.32,2.32,0,0,1-.51,1.34,1.7,1.7,0,0,1-1.48.71H467.73a1.7,1.7,0,0,1-1.45-.71,2.25,2.25,0,0,1-.54-1.34V69.35A2.22,2.22,0,0,1,466.3,68a1.79,1.79,0,0,1,1.48-.71H479.5A1.73,1.73,0,0,1,481,68a2.32,2.32,0,0,1,.51,1.34V94.94h21.06V69.35a2.22,2.22,0,0,1,.56-1.34,1.8,1.8,0,0,1,1.48-.71h11.72a1.71,1.71,0,0,1,1.48.71A2.32,2.32,0,0,1,518.3,69.35Z"/></g></g></svg>