<svg xmlns="http://www.w3.org/2000/svg" viewBox="0 0 437.24 130.53"><g id="レイヤー_2" data-name="レイヤー 2"><g id="レイヤー_1-2" data-name="レイヤー 1"><path d="M61.72,46.35H32.44L27.66,62.19a4.5,4.5,0,0,1-1.73,2.27,5,5,0,0,1-3.14,1.19H2q-2.64,0-1.81-3.46L17.85,3.46a4.72,4.72,0,0,1,1.73-2.22A4.8,4.8,0,0,1,22.71,0H43.5a1.93,1.93,0,0,1,1.65.66,2,2,0,0,1,.41,1.44,8.32,8.32,0,0,1-.25,1.36L39.7,22.27H91.75a2.49,2.49,0,0,1,2.35,1.24,2.72,2.72,0,0,1,.37,2.22l-28,97.82A5.18,5.18,0,0,1,65,125.82,3.67,3.67,0,0,1,62.3,127h-20A2.33,2.33,0,0,1,40,125.82a3.31,3.31,0,0,1-.37-2.27L47.21,97,32,92.13a5.14,5.14,0,0,1-2.27-1.78,4.73,4.73,0,0,1-1.19-3.09V66.48a1.78,1.78,0,0,1,1.32-1.94,2.65,2.65,0,0,1,2.14.12l22.52,7.09Z"/><path d="M204,35.22a4.53,4.53,0,0,1-1.2,3,7.08,7.08,0,0,1-2.27,1.89L169.85,54.76v68.62a4.08,4.08,0,0,1-.91,2.4A3.07,3.07,0,0,1,166.3,127h-17a3.09,3.09,0,0,1-2.64-1.23,4.13,4.13,0,0,1-.9-2.4V66.31l-36.13,17.4a2.36,2.36,0,0,1-2.14.17,1.85,1.85,0,0,1-1.32-2V61.12a4.51,4.51,0,0,1,1.19-3,7.41,7.41,0,0,1,2.27-1.85l90.89-43.63a2.23,2.23,0,0,1,2.15-.25A1.9,1.9,0,0,1,204,14.43Z"/><path d="M224.78,123.38V16.25a4.54,4.54,0,0,1,.95-2.52,3,3,0,0,1,2.6-1.36h17a3,3,0,0,1,2.59,1.36,4.46,4.46,0,0,1,1,2.52V40.5l56.42,25.15a7,7,0,0,1,2.26,1.9,4.49,4.49,0,0,1,1.2,3V91.3a1.83,1.83,0,0,1-1.32,2,2.45,2.45,0,0,1-2.14-.2L248.86,68v55.34a4.13,4.13,0,0,1-.9,2.4,3.09,3.09,0,0,1-2.64,1.23h-17a3.07,3.07,0,0,1-2.64-1.23A4.08,4.08,0,0,1,224.78,123.38Z"/><path d="M338.19,56.74a18.14,18.14,0,0,0,.7-2.59,24.35,24.35,0,0,0,.45-3.1l.16-1.32V22.35a3.87,3.87,0,0,1,.91-2.27A3,3,0,0,1,343,18.89h20a2.91,2.91,0,0,1,2.51,1.19,3.93,3.93,0,0,1,.87,2.27V49.73a26.44,26.44,0,0,1-1.32,7l-16.66,66.81a6.85,6.85,0,0,1-1.49,2.31,3.44,3.44,0,0,1-2.63,1.15h-20a2.4,2.4,0,0,1-2.31-1.23,2.8,2.8,0,0,1-.33-2.23Zm99.05,51.72a4.2,4.2,0,0,1-1.2,2.88,5.35,5.35,0,0,1-2.27,1.65L381.65,130.4a2.37,2.37,0,0,1-1.9-.17,3.46,3.46,0,0,1-1.56-2V20.37a4,4,0,0,1,.86-2.47,3,3,0,0,1,2.68-1.4h17a3,3,0,0,1,2.6,1.36,4.48,4.48,0,0,1,.95,2.51V96l31.5-10.47a3.08,3.08,0,0,1,2.27,0,2,2,0,0,1,1.2,2.1Z"/></g></g></svg>