<svg xmlns="http://www.w3.org/2000/svg" xmlns:xlink="http://www.w3.org/1999/xlink" viewBox="0 0 1126 2061"><defs><style>.cls-1{stroke:#000;fill:url(#名称未設定グラデーション_6);}.cls-1,.cls-13,.cls-2{stroke-miterlimit:10;}.cls-2,.cls-8,.cls-9{font-size:216.22px;}.cls-12,.cls-13,.cls-2,.cls-9{stroke:#fff;}.cls-13,.cls-16,.cls-2,.cls-8,.cls-9{font-family:Nikkyou-Sans, Nikkyou Sans;}.cls-3{letter-spacing:-0.02em;}.cls-4{letter-spacing:-0.02em;}.cls-5{letter-spacing:0.07em;}.cls-6{letter-spacing:0.03em;}.cls-7{letter-spacing:-0.09em;}.cls-11,.cls-13,.cls-8{fill:#c20005;}.cls-16,.cls-9{fill:none;}.cls-9{stroke-width:4px;}.cls-10,.cls-12{fill:#fff;}.cls-11,.cls-16{stroke:#c20005;}.cls-11,.cls-12{stroke-width:3px;}.cls-13,.cls-16{font-size:100px;}.cls-14{letter-spacing:-0.02em;}.cls-15{letter-spacing:-0.02em;}.cls-17{letter-spacing:0.01em;}.cls-18{letter-spacing:0.01em;}.cls-19{letter-spacing:-0.01em;}</style><linearGradient id="名称未設定グラデーション_6" x1="-64.13" y1="-44.35" x2="1168.77" y2="2068.73" gradientUnits="userSpaceOnUse"><stop offset="0" stop-color="#4dcaff"/><stop offset="0.19" stop-color="#51c4fe"/><stop offset="0.44" stop-color="#5cb3fc"/><stop offset="0.73" stop-color="#6f97f8"/><stop offset="1" stop-color="#8577f3"/></linearGradient></defs><g id="レイヤー_2" data-name="レイヤー 2"><g id="レイヤー_1-2" data-name="レイヤー 1"><rect class="cls-1" x="0.5" y="0.5" width="1125" height="2060"/><text class="cls-2" transform="matrix(0.99, -0.08, -0.44, 0.9, 96.11, 691.19)"><tspan class="cls-3">コ</tspan><tspan class="cls-4" x="155.76" y="0">コ</tspan><tspan class="cls-5" x="311.29" y="0">ど</tspan><tspan class="cls-6" x="469.95" y="0">が</tspan><tspan class="cls-7" x="635.67" y="0">ん</tspan><tspan x="764.85" y="16.03">？</tspan></text><text class="cls-8" transform="matrix(0.99, -0.08, -0.44, 0.9, 96.11, 691.19)"><tspan class="cls-3">コ</tspan><tspan class="cls-4" x="155.76" y="0">コ</tspan><tspan class="cls-5" x="311.29" y="0">ど</tspan><tspan class="cls-6" x="469.95" y="0">が</tspan><tspan class="cls-7" x="635.67" y="0">ん</tspan><tspan x="764.85" y="16.03">？</tspan></text><text class="cls-9" transform="matrix(0.99, -0.08, -0.44, 0.9, 96.11, 691.19)"><tspan class="cls-3">コ</tspan><tspan class="cls-4" x="155.76" y="0">コ</tspan><tspan class="cls-5" x="311.29" y="0">ど</tspan><tspan class="cls-6" x="469.95" y="0">が</tspan><tspan class="cls-7" x="635.67" y="0">ん</tspan><tspan x="764.85" y="16.03">？</tspan></text><rect class="cls-10" x="136.5" y="1061.5" width="861" height="211"/><rect class="cls-11" x="800.5" y="1061.5" width="197" height="211"/><polygon class="cls-12" points="902.76 1151.2 929.78 1166.39 903.12 1182.19 876.45 1198 876.09 1167 875.74 1136 902.76 1151.2"/><text class="cls-13" transform="translate(343.58 1197.85) scale(0.99 1)"><tspan class="cls-14">P</tspan><tspan class="cls-15" x="63.06" y="0">O</tspan><tspan class="cls-14" x="131.02" y="0">S</tspan><tspan x="194.09" y="0">T</tspan></text><text class="cls-16" transform="translate(343.58 1197.85) scale(0.99 1)"><tspan class="cls-14">P</tspan><tspan class="cls-15" x="63.06" y="0">O</tspan><tspan class="cls-14" x="131.02" y="0">S</tspan><tspan x="194.09" y="0">T</tspan></text><rect class="cls-10" x="136.5" y="1403.5" width="861" height="211"/><rect class="cls-11" x="800.5" y="1403.5" width="197" height="211"/><polygon class="cls-12" points="898.76 1493.2 925.78 1508.39 899.12 1524.19 872.45 1540 872.09 1509 871.74 1478 898.76 1493.2"/><text class="cls-13" transform="translate(286.4 1533.85) scale(0.99 1)"><tspan class="cls-14">S</tspan><tspan class="cls-17" x="63.06" y="0">E</tspan><tspan class="cls-18" x="128.99" y="0">A</tspan><tspan class="cls-19" x="185.4" y="0">R</tspan><tspan class="cls-14" x="249.18" y="0">C</tspan><tspan x="312.24" y="0">H</tspan></text><text class="cls-16" transform="translate(286.4 1533.85) scale(0.99 1)"><tspan class="cls-14">S</tspan><tspan class="cls-17" x="63.06" y="0">E</tspan><tspan class="cls-18" x="128.99" y="0">A</tspan><tspan class="cls-19" x="185.4" y="0">R</tspan><tspan class="cls-14" x="249.18" y="0">C</tspan><tspan x="312.24" y="0">H</tspan></text></g></g></svg>